<svg width="35" height="47" viewBox="0 0 35 47" fill="none" xmlns="http://www.w3.org/2000/svg">
<g clip-path="url(#clip0_727_1643)">
<path d="M5.43962 40.8361C2.86746 40.8361 0.7771 38.7634 0.7771 36.2131C0.7771 33.6628 2.86746 31.5901 5.43962 31.5901" stroke="white" stroke-width="2" stroke-linecap="round" stroke-linejoin="round"/>
<path d="M0.7771 5.39346C0.7771 2.84313 2.86746 0.770508 5.43962 0.770508" stroke="white" stroke-width="2" stroke-linecap="round" stroke-linejoin="round"/>
<path d="M5.4397 0.770508H21.7585" stroke="white" stroke-width="2" stroke-linecap="round" stroke-linejoin="round"/>
<path d="M34.2229 30.0492L34.1996 38.5323C34.1996 39.8036 33.1505 40.8361 31.8683 40.8361H30.3064" stroke="white" stroke-width="2" stroke-linecap="round" stroke-linejoin="round"/>
<path d="M5.4397 36.2131H34.1919" stroke="white" stroke-width="2" stroke-linecap="round" stroke-linejoin="round"/>
<path d="M0.7771 5.39343V36.2131" stroke="white" stroke-width="2" stroke-linecap="round" stroke-linejoin="round"/>
<path d="M5.4397 4.62292L5.48632 31.5901" stroke="white" stroke-width="2" stroke-linecap="round" stroke-linejoin="round"/>
<path d="M21.7585 0.770508H31.8607C33.1506 0.770508 34.1919 1.80297 34.1919 3.08198V29.2787C34.1919 30.5577 33.1506 31.5902 31.8607 31.5902H5.4397" stroke="white" stroke-width="2" stroke-linecap="round" stroke-linejoin="round"/>
<path d="M10.1021 13.0984H29.5292" stroke="white" stroke-width="2" stroke-linecap="round" stroke-linejoin="round"/>
<path d="M12.4333 18.4918H25.6438" stroke="white" stroke-width="2" stroke-linecap="round" stroke-linejoin="round"/>
<path d="M20.9814 36.9836V46.2295L24.0898 43.9181" stroke="white" stroke-width="2" stroke-linecap="round" stroke-linejoin="round"/>
<path d="M27.1979 36.9836V46.2295L24.0896 43.9181" stroke="white" stroke-width="2" stroke-linecap="round" stroke-linejoin="round"/>
<path d="M5.4397 40.8361H20.9814" stroke="white" stroke-width="2" stroke-linecap="round" stroke-linejoin="round"/>
</g>
<defs>
<clipPath id="clip0_727_1643">
<rect width="35" height="47" fill="white"/>
</clipPath>
</defs>
</svg>
