<svg width="64" height="64" viewBox="0 0 64 64" fill="none" xmlns="http://www.w3.org/2000/svg">
<path d="M25.58 31.2C25.2 32.06 25 33.01 25 34C25 37.87 28.13 41 32 41C35.87 41 39 37.87 39 34C39 33.28 38.89 32.58 38.69 31.93" stroke="#FAC13C" stroke-width="2" stroke-linecap="round" stroke-linejoin="round"/>
<path d="M34.0699 27.31C33.4199 27.11 32.7199 27 31.9999 27C30.7899 27 29.6599 27.31 28.6699 27.84" stroke="#FAC13C" stroke-width="2" stroke-linecap="round" stroke-linejoin="round"/>
<path d="M34.07 27.3101C32.85 27.8601 32 29.0801 32 30.5001C32 32.4301 33.57 34.0001 35.5 34.0001C36.92 34.0001 38.14 33.1501 38.69 31.9301" stroke="#FAC13C" stroke-width="2" stroke-linecap="round" stroke-linejoin="round"/>
<path d="M32 47C39.1797 47 45 41.1797 45 34C45 26.8203 39.1797 21 32 21C24.8203 21 19 26.8203 19 34C19 41.1797 24.8203 47 32 47Z" stroke="#FAC13C" stroke-width="2" stroke-linecap="round" stroke-linejoin="round"/>
<path d="M61 34C61 34 51 21 32 21C13 21 3 34 3 34" stroke="#FAC13C" stroke-width="2" stroke-linecap="round" stroke-linejoin="round"/>
<path d="M61 34C61 34 51 47 32 47C13 47 3 34 3 34" stroke="#FAC13C" stroke-width="2" stroke-linecap="round" stroke-linejoin="round"/>
<path d="M32 21V15" stroke="#FAC13C" stroke-width="2" stroke-linecap="round" stroke-linejoin="round"/>
<path d="M16 24L13 19" stroke="#FAC13C" stroke-width="2" stroke-linecap="round" stroke-linejoin="round"/>
<path d="M48 24L51 19" stroke="#FAC13C" stroke-width="2" stroke-linecap="round" stroke-linejoin="round"/>
<path d="M32 47V53" stroke="#FAC13C" stroke-width="2" stroke-linecap="round" stroke-linejoin="round"/>
<path d="M16 44L13 49" stroke="#FAC13C" stroke-width="2" stroke-linecap="round" stroke-linejoin="round"/>
<path d="M48 44L51 49" stroke="#FAC13C" stroke-width="2" stroke-linecap="round" stroke-linejoin="round"/>
</svg>
