<svg width="184" height="140" viewBox="0 0 184 140" fill="none" xmlns="http://www.w3.org/2000/svg">
<circle cx="41.325" cy="36.265" r="33.7349" fill="#071E4A"/>
<circle cx="94.4575" cy="70" r="70" fill="#579CE2"/>
<g clip-path="url(#clip0_415_621)">
<path d="M80.9639 64.2279C87.293 64.2279 92.4238 59.1179 92.4238 52.8143C92.4238 46.5107 87.293 41.4006 80.9639 41.4006C74.6347 41.4006 69.5039 46.5107 69.5039 52.8143C69.5039 59.1179 74.6347 64.2279 80.9639 64.2279Z" stroke="white" stroke-width="2" stroke-linecap="round" stroke-linejoin="round"/>
<path d="M110.432 64.2279C116.761 64.2279 121.892 59.1179 121.892 52.8143C121.892 46.5107 116.761 41.4006 110.432 41.4006C104.103 41.4006 98.9722 46.5107 98.9722 52.8143C98.9722 59.1179 104.103 64.2279 110.432 64.2279Z" stroke="white" stroke-width="2" stroke-linecap="round" stroke-linejoin="round"/>
<path d="M90.7866 60.9669L95.698 67.489L100.609 60.9669" stroke="white" stroke-width="2" stroke-linecap="round" stroke-linejoin="round"/>
<path d="M80.9637 56.0754C82.7721 56.0754 84.238 54.6154 84.238 52.8143C84.238 51.0133 82.7721 49.5533 80.9637 49.5533C79.1554 49.5533 77.6895 51.0133 77.6895 52.8143C77.6895 54.6154 79.1554 56.0754 80.9637 56.0754Z" stroke="white" stroke-width="2" stroke-linecap="round" stroke-linejoin="round"/>
<path d="M110.432 56.0754C112.24 56.0754 113.706 54.6154 113.706 52.8143C113.706 51.0133 112.24 49.5533 110.432 49.5533C108.624 49.5533 107.158 51.0133 107.158 52.8143C107.158 54.6154 108.624 56.0754 110.432 56.0754Z" stroke="white" stroke-width="2" stroke-linecap="round" stroke-linejoin="round"/>
<path d="M79.3267 34.8786V31.6176" stroke="white" stroke-width="2" stroke-linecap="round" stroke-linejoin="round"/>
<path d="M110.432 39.7702V31.6176" stroke="white" stroke-width="2" stroke-linecap="round" stroke-linejoin="round"/>
<path d="M95.698 46.2922C90.7866 39.7701 67.8667 41.4006 67.8667 34.8785" stroke="white" stroke-width="2" stroke-linecap="round" stroke-linejoin="round"/>
<path d="M95.6978 46.2922C100.609 39.7701 123.529 41.4006 123.529 34.8785" stroke="white" stroke-width="2" stroke-linecap="round" stroke-linejoin="round"/>
<path d="M71.1406 28.3565L95.6977 33.9981" stroke="white" stroke-width="2" stroke-linecap="round" stroke-linejoin="round"/>
<path d="M120.255 28.3565L95.6978 33.9981" stroke="white" stroke-width="2" stroke-linecap="round" stroke-linejoin="round"/>
<path d="M71.1406 28.3565L95.6977 22.7148" stroke="white" stroke-width="2" stroke-linecap="round" stroke-linejoin="round"/>
<path d="M120.255 28.3565L95.6978 22.7148" stroke="white" stroke-width="2" stroke-linecap="round" stroke-linejoin="round"/>
<path d="M93.8481 104.241H98.7596" stroke="white" stroke-width="2" stroke-linecap="round" stroke-linejoin="round"/>
<path d="M87.5121 103.866C87.5121 103.866 74.415 97.7189 74.415 86.3052V69.1195" stroke="white" stroke-width="2" stroke-linecap="round" stroke-linejoin="round"/>
<path d="M120.255 60.2169C120.255 60.2169 131.715 61.8474 131.715 77.2721C131.715 96.0883 112.069 104.241 112.069 104.241" stroke="white" stroke-width="2" stroke-linecap="round" stroke-linejoin="round"/>
<path d="M103.884 104.241C103.884 104.241 116.981 97.7189 116.981 86.3052C116.981 74.8916 116.981 63.4779 116.981 63.4779" stroke="white" stroke-width="2" stroke-linecap="round" stroke-linejoin="round"/>
<path d="M66.2295 117.285H120.255V104.241H112.069" stroke="white" stroke-width="2" stroke-linecap="round" stroke-linejoin="round"/>
<path d="M79.3266 104.241H66.2295" stroke="white" stroke-width="2" stroke-linecap="round" stroke-linejoin="round"/>
<path d="M120.255 104.241H126.803V117.285H120.255" stroke="white" stroke-width="2" stroke-linecap="round" stroke-linejoin="round"/>
<path d="M126.804 104.241H131.682C133.516 104.241 134.989 105.708 134.989 107.535V114.024C134.989 115.818 133.516 117.285 131.715 117.285H126.804" stroke="white" stroke-width="2" stroke-linecap="round" stroke-linejoin="round"/>
<path d="M66.2295 104.241L54.7695 109.834L66.2295 117.285V110.763" stroke="white" stroke-width="2" stroke-linecap="round" stroke-linejoin="round"/>
<path d="M65.0014 63.3312C62.2837 65.728 59.6807 69.9348 59.6807 77.2721C59.6807 96.0884 79.3263 104.241 79.3263 104.241" stroke="white" stroke-width="2" stroke-linecap="round" stroke-linejoin="round"/>
</g>
<circle cx="17.7108" cy="56.506" r="17.7108" fill="#FAC13C"/>
<circle cx="179.217" cy="99.9397" r="3.79518" fill="#071E4A"/>
<circle cx="166.145" cy="120.602" r="10.1205" fill="#FAC13C"/>
<defs>
<clipPath id="clip0_415_621">
<rect width="83.494" height="97.8313" fill="white" transform="translate(53.1323 21.0844)"/>
</clipPath>
</defs>
</svg>
