<svg width="62" height="54" viewBox="0 0 62 54" fill="none" xmlns="http://www.w3.org/2000/svg">
<path d="M11.9304 38.2702L6.36035 32.6402L33.5504 5.17017L39.1304 10.8002L11.9304 38.2702Z" stroke="#FAC13C" stroke-width="2" stroke-linecap="round" stroke-linejoin="round"/>
<path d="M6.36025 32.6401L4.26025 40.3801L11.9303 38.2701" stroke="#FAC13C" stroke-width="2" stroke-linecap="round" stroke-linejoin="round"/>
<path d="M33.5503 5.17006L36.3403 2.35006C36.3403 2.35006 37.7303 0.940059 40.5203 3.76006C43.3103 6.58006 41.9103 7.99006 41.9103 7.99006L39.1203 10.8101" stroke="#FAC13C" stroke-width="2" stroke-linecap="round" stroke-linejoin="round"/>
<path d="M31.4604 8.68994L36.3405 13.6199" stroke="#FAC13C" stroke-width="2" stroke-linecap="round" stroke-linejoin="round"/>
<path d="M2.26007 43.0001C2.26007 43.0001 0.260068 51.0001 7.26007 51.0001C12.2201 51.0001 22.2001 42.9701 27.6001 38.2801C29.7001 36.4601 32.8501 36.5801 34.8101 38.5401L49.2601 52.9901" stroke="#FAC13C" stroke-width="2" stroke-linecap="round" stroke-linejoin="round"/>
<path d="M41.2603 40L46.7603 35.72C48.7903 34.14 51.6503 34.25 53.5603 35.96L60.2603 41.99" stroke="#FAC13C" stroke-width="2" stroke-linecap="round" stroke-linejoin="round"/>
<path d="M40.2603 32C42.4694 32 44.2603 30.2091 44.2603 28C44.2603 25.7909 42.4694 24 40.2603 24C38.0511 24 36.2603 25.7909 36.2603 28C36.2603 30.2091 38.0511 32 40.2603 32Z" stroke="#FAC13C" stroke-width="2" stroke-linecap="round" stroke-linejoin="round"/>
</svg>
