<svg width="58" height="58" viewBox="0 0 58 58" fill="none" xmlns="http://www.w3.org/2000/svg">
<g clip-path="url(#clip0_414_258)">
<path d="M13.5938 39.875C16.0963 39.875 18.125 37.8463 18.125 35.3438C18.125 32.8412 16.0963 30.8125 13.5938 30.8125C11.0912 30.8125 9.0625 32.8412 9.0625 35.3438C9.0625 37.8463 11.0912 39.875 13.5938 39.875Z" stroke="#FAC13C" stroke-width="2" stroke-linecap="round" stroke-linejoin="round"/>
<path d="M11.7812 46.2188L13.6119 51.0944C14.1466 52.5172 15.515 53.4688 17.0375 53.4688H23.4537C24.5141 53.4688 25.375 52.6078 25.375 51.5475C25.375 50.5778 24.65 49.7531 23.6894 49.6353L18.7322 49.0191C18.3697 48.9738 18.0706 48.72 17.9709 48.3575C17.6719 47.2609 16.9922 44.8684 16.3125 43.5C15.4062 41.6875 14.5 39.875 11.3281 39.875C7.25 39.875 6.34375 42.5938 5.4375 46.2188L2.71875 57.0938" stroke="#FAC13C" stroke-width="2" stroke-linecap="round" stroke-linejoin="round"/>
<path d="M14.5 52.5625V57.0938" stroke="#FAC13C" stroke-width="2" stroke-linecap="round" stroke-linejoin="round"/>
<path d="M14.5 57.0938H29" stroke="#FAC13C" stroke-width="2" stroke-linecap="round" stroke-linejoin="round"/>
<path d="M19.9375 53.4688H29" stroke="#FAC13C" stroke-width="2" stroke-linecap="round" stroke-linejoin="round"/>
<path d="M44.4062 39.875C46.9088 39.875 48.9375 37.8463 48.9375 35.3438C48.9375 32.8412 46.9088 30.8125 44.4062 30.8125C41.9037 30.8125 39.875 32.8412 39.875 35.3438C39.875 37.8463 41.9037 39.875 44.4062 39.875Z" stroke="#FAC13C" stroke-width="2" stroke-linecap="round" stroke-linejoin="round"/>
<path d="M29 39.875C31.5025 39.875 33.5312 37.8463 33.5312 35.3438C33.5312 32.8412 31.5025 30.8125 29 30.8125C26.4975 30.8125 24.4688 32.8412 24.4688 35.3438C24.4688 37.8463 26.4975 39.875 29 39.875Z" stroke="#FAC13C" stroke-width="2" stroke-linecap="round" stroke-linejoin="round"/>
<path d="M46.2188 46.2188L44.3881 51.0944C43.8534 52.5172 42.485 53.4688 40.9625 53.4688H34.5462C33.4859 53.4688 32.625 52.6078 32.625 51.5475C32.625 50.5778 33.35 49.7531 34.3106 49.6353L39.2678 49.0191C39.6303 48.9738 39.9294 48.72 40.0291 48.3575C40.3281 47.2609 41.0078 44.8684 41.6875 43.5C42.5938 41.6875 43.5 39.875 46.6719 39.875C50.75 39.875 51.6562 42.5938 52.5625 46.2188C53.4688 49.8438 55.2812 57.0938 55.2812 57.0938" stroke="#FAC13C" stroke-width="2" stroke-linecap="round" stroke-linejoin="round"/>
<path d="M43.5 52.5625V57.0938" stroke="#FAC13C" stroke-width="2" stroke-linecap="round" stroke-linejoin="round"/>
<path d="M43.5 57.0938H29" stroke="#FAC13C" stroke-width="2" stroke-linecap="round" stroke-linejoin="round"/>
<path d="M38.0625 53.4688H29" stroke="#FAC13C" stroke-width="2" stroke-linecap="round" stroke-linejoin="round"/>
<path d="M21.75 48.9375V46.2188C21.75 42.7116 24.9944 39.875 29 39.875C33.0056 39.875 36.25 42.7116 36.25 46.2188V48.9375" stroke="#FAC13C" stroke-width="2" stroke-linecap="round" stroke-linejoin="round"/>
<path d="M25.8462 22.8647C26.3356 22.8647 26.8431 22.8738 27.3596 22.8738" stroke="#FAC13C" stroke-width="2" stroke-linecap="round" stroke-linejoin="round"/>
<path d="M27.3597 0.90625C8.92656 0.90625 7.25 5.82719 7.25 11.89C7.25 17.0375 8.46437 21.3512 20.0734 22.5475" stroke="#FAC13C" stroke-width="2" stroke-linecap="round" stroke-linejoin="round"/>
<path d="M46.409 6.4707C47.279 8.07477 47.4603 9.92352 47.4603 11.8901C47.4603 17.9529 45.7837 22.8738 27.3506 22.8738" stroke="#FAC13C" stroke-width="2" stroke-linecap="round" stroke-linejoin="round"/>
<path d="M27.3596 0.90625C39.8024 0.90625 44.6056 3.14469 46.4181 6.47062" stroke="#FAC13C" stroke-width="2" stroke-linecap="round" stroke-linejoin="round"/>
<path d="M31.5466 26.3899L38.2529 29.9062L36.8482 26.2268" stroke="#FAC13C" stroke-width="2" stroke-linecap="round" stroke-linejoin="round"/>
<path d="M36.8481 26.227C50.306 25.3298 51.6563 20.8348 51.6563 15.4063C51.6563 11.7179 51.031 8.46445 46.4091 6.4707" stroke="#FAC13C" stroke-width="2" stroke-linecap="round" stroke-linejoin="round"/>
<path d="M20.0734 22.5476L18.1431 27.2692L25.8462 22.8648" stroke="#FAC13C" stroke-width="2" stroke-linecap="round" stroke-linejoin="round"/>
</g>
<defs>
<clipPath id="clip0_414_258">
<rect width="58" height="58" fill="white"/>
</clipPath>
</defs>
</svg>
