<svg width="64" height="64" viewBox="0 0 64 64" fill="none" xmlns="http://www.w3.org/2000/svg">
<path d="M32 2C28 2 21 13.09 21 24C21 31.56 23 38.75 26.5 43H32" stroke="#FAC13C" stroke-width="2" stroke-linecap="round" stroke-linejoin="round"/>
<path d="M32 2C36 2 43 13.09 43 24C43 31.56 41 38.75 37.5 43H32" stroke="#FAC13C" stroke-width="2" stroke-linecap="round" stroke-linejoin="round"/>
<path d="M27.4302 17.08C26.5102 18.17 25.9702 19.59 26.0002 21.14C26.0802 24.45 28.7702 27.08 32.0102 27C35.2502 26.92 37.8202 24.18 37.7502 20.87C37.6702 17.56 34.9802 14.93 31.7402 15.01" stroke="#FAC13C" stroke-width="2" stroke-linecap="round" stroke-linejoin="round"/>
<path d="M39.5 38.75H28.25" stroke="#FAC13C" stroke-width="2" stroke-linecap="round" stroke-linejoin="round"/>
<path d="M21.75 32L19.51 33.56C17.31 35.09 16 37.6 16 40.27V44.75L22 41.25" stroke="#FAC13C" stroke-width="2" stroke-linecap="round" stroke-linejoin="round"/>
<path d="M42.25 32L44.49 33.56C46.69 35.09 48 37.6 48 40.27V44.75L42 41.25" stroke="#FAC13C" stroke-width="2" stroke-linecap="round" stroke-linejoin="round"/>
<path d="M27.25 43.5L26 52.5" stroke="#FAC13C" stroke-width="2" stroke-linecap="round" stroke-linejoin="round"/>
<path d="M36.75 43.5L37.69 50.56" stroke="#FAC13C" stroke-width="2" stroke-linecap="round" stroke-linejoin="round"/>
<path d="M37.6899 50.56C37.9599 50.52 38.2299 50.5 38.4999 50.5C41.4699 50.5 43.9099 52.75 44.2199 55.64" stroke="#FAC13C" stroke-width="2" stroke-linecap="round" stroke-linejoin="round"/>
<path d="M37.69 50.5601C34.9 50.9601 32.75 53.3501 32.75 56.2501" stroke="#FAC13C" stroke-width="2" stroke-linecap="round" stroke-linejoin="round"/>
<path d="M44.2202 55.64C45.1502 55.23 46.1702 55 47.2502 55C51.3902 55 55.0002 58.86 55.0002 63" stroke="#FAC13C" stroke-width="2" stroke-linecap="round" stroke-linejoin="round"/>
<path d="M20.0801 55.8C20.5301 53.22 22.7801 51.25 25.5001 51.25" stroke="#FAC13C" stroke-width="2" stroke-linecap="round" stroke-linejoin="round"/>
<path d="M20.08 55.8C19.42 55.61 18.72 55.5 18 55.5C13.86 55.5 10 58.86 10 63" stroke="#FAC13C" stroke-width="2" stroke-linecap="round" stroke-linejoin="round"/>
<path d="M20.08 55.8C20.03 56.11 20 56.43 20 56.75C20 58.09 20.48 59.3101 21.28 60.2701" stroke="#FAC13C" stroke-width="2" stroke-linecap="round" stroke-linejoin="round"/>
</svg>
