<svg width="88" height="47" viewBox="0 0 88 47" fill="none" xmlns="http://www.w3.org/2000/svg">
<g clip-path="url(#clip0_415_358)">
<path d="M0 46.9683V44.7051C1.2158 44.6988 2.41261 44.7051 3.61574 44.7051C4.81255 44.7051 6.00935 44.7051 7.20616 44.7051H21.6121C22.8153 44.7051 24.0184 44.7051 25.2279 44.7051H28.8183C30.0214 44.7051 31.2246 44.7051 32.434 44.7051H36.0308C36.0371 44.6037 36.0498 44.5276 36.0498 44.4516C36.0498 44.0015 36.0498 43.5577 36.0498 43.1076C36.0498 42.8541 36.0498 42.8541 35.8092 42.7653C33.7132 41.9982 31.7502 40.9649 29.9518 39.6463C26.3677 37.0218 23.7271 33.662 22.1377 29.497C21.4982 27.8171 21.0929 26.0738 20.9093 24.2861C20.7699 22.9168 20.751 21.5475 20.8839 20.1845C21.3145 15.7596 22.9799 11.8419 25.8358 8.45036C29.0146 4.66576 33.0356 2.1744 37.7848 0.86215C39.3236 0.437413 40.8877 0.177499 42.4834 0.0697298C47.7139 -0.272595 52.5898 0.85581 57.0604 3.60709C61.0497 6.06676 64.0512 9.42662 65.9509 13.7374C66.7678 15.5948 67.3124 17.5283 67.5403 19.5442C68.2179 25.4462 66.6791 30.7269 63.0127 35.3736C60.2582 38.8666 56.7248 41.3073 52.5518 42.8224C52.4505 42.8604 52.3428 42.8984 52.2415 42.9365V44.8573H88.0127V46.9873H49.9872C49.9302 46.7845 49.9112 41.7573 49.9619 40.9713C50.0632 40.9396 50.1708 40.8952 50.2848 40.8635C52.957 40.0964 55.3886 38.8666 57.567 37.136C60.7014 34.6446 62.9367 31.5129 64.1652 27.684C64.6148 26.2703 64.8934 24.8186 64.9757 23.3288C65.2797 17.6868 63.3863 12.8562 59.4793 8.83072C56.5348 5.79417 52.9317 3.90504 48.803 3.01119C46.9603 2.61181 45.0923 2.45333 43.2116 2.5611C37.1073 2.92244 31.9781 5.32506 27.9761 9.99082C25.8358 12.4822 24.4617 15.3666 23.8285 18.5933C23.5245 20.1528 23.4105 21.7377 23.5372 23.3225C24.0121 29.3829 26.849 34.1057 31.6805 37.6875C33.5992 39.1075 35.7332 40.1218 38.0191 40.8001C38.1078 40.8255 38.1964 40.8572 38.3041 40.8889V46.9556C38.1268 47.0063 0.424264 47.0253 0.0126646 46.9683H0Z" fill="white"/>
<path d="M27.2036 28.4193C27.4759 28.0009 27.7228 27.5889 28.0014 27.1895C28.2167 26.8789 28.5967 26.7965 28.9449 26.9549C29.0526 27.0057 29.1539 27.0754 29.2552 27.1388C29.7112 27.4304 30.1734 27.7157 30.6863 27.8995C31.4779 28.1848 32.2884 28.2228 33.0989 28.0073C34.2261 27.7093 34.6314 26.8789 34.5364 25.8709C34.511 25.5793 34.3844 25.3257 34.1754 25.1165C33.9031 24.8376 33.5865 24.6411 33.2256 24.5143C32.7887 24.3558 32.3391 24.2354 31.9021 24.0896C31.2816 23.8867 30.661 23.6838 30.0468 23.462C29.6478 23.3162 29.2869 23.0943 28.9639 22.8217C28.2927 22.2575 27.9254 21.5285 27.8241 20.66C27.7671 20.1528 27.7735 19.6457 27.9065 19.1512C28.1661 18.194 28.7297 17.4586 29.5529 16.9197C30.3191 16.4189 31.1676 16.159 32.0794 16.1083C33.2826 16.0322 34.4541 16.1844 35.5495 16.7169C35.9295 16.9007 36.2714 17.148 36.626 17.3698C36.6957 17.4142 36.7527 17.4776 36.8097 17.5347C36.797 17.579 36.797 17.6044 36.7843 17.6234C36.569 18.0164 36.3601 18.4095 36.1321 18.7962C35.9548 19.1005 35.6699 19.2019 35.3342 19.0815C35.2139 19.0371 35.0999 18.9737 34.986 18.9103C34.5807 18.6821 34.1754 18.4602 33.7258 18.3271C33.023 18.1179 32.3137 18.0989 31.6172 18.3081C31.3766 18.3778 31.1359 18.4982 30.927 18.6504C30.3761 19.0434 30.2494 19.69 30.3634 20.2606C30.4014 20.4698 30.5154 20.6409 30.661 20.7931C30.8763 21.015 31.1169 21.1925 31.4019 21.3002C31.8831 21.4904 32.3707 21.6552 32.852 21.8264C33.5295 22.0673 34.2198 22.2955 34.891 22.5554C35.1696 22.6632 35.4292 22.8217 35.6762 22.9928C36.607 23.6204 37.0693 24.5143 37.0883 25.6364C37.1326 27.7727 35.8598 29.478 33.7195 30.0105C31.4779 30.562 29.4072 30.1183 27.5455 28.73C27.4252 28.6412 27.3112 28.5271 27.1846 28.4193H27.2036ZM28.7613 29.0216C29.2489 29.0343 29.6542 28.6856 29.6668 28.2228C29.6858 27.7791 29.3059 27.3987 28.8246 27.386C28.337 27.367 27.9318 27.7283 27.9191 28.1848C27.9065 28.6349 28.2864 29.0089 28.755 29.0216H28.7613Z" fill="white"/>
<path d="M60.505 28.0326V30.0612H51.2979V16.2605H60.505V18.2637C59.9668 18.2954 59.4285 18.2764 58.8903 18.2764C58.3584 18.2764 57.8265 18.2764 57.2882 18.2764H54.0841C54.0841 18.2764 54.0524 18.3081 54.0461 18.3144C54.0461 18.3144 54.0334 18.3271 54.0334 18.3334C54.0271 18.3778 54.0144 18.4158 54.0144 18.4602C54.0144 21.5919 54.0144 24.7298 54.0144 27.8615C54.0144 27.8932 54.0144 27.9312 54.0271 27.9629C54.0271 27.9756 54.0461 27.9946 54.0651 28.0263H60.4987L60.505 28.0326Z" fill="white"/>
<path d="M42.4012 18.3524H38.0193C37.9559 18.1496 37.9433 16.5647 38.0003 16.2668H45.0798C45.1304 16.4633 45.1368 29.7823 45.0861 30.0676H42.4139C42.3885 29.421 42.4075 28.7743 42.4012 28.1341C42.4012 27.4811 42.4012 26.8218 42.4012 26.1689V20.3303C42.4012 19.6837 42.4012 19.0371 42.4012 18.3588V18.3524Z" fill="white"/>
<path d="M48.3469 16.2541C48.9675 16.2541 49.4614 16.7232 49.4551 17.3065C49.4551 17.8897 48.9485 18.3588 48.3343 18.3524C47.7327 18.3461 47.2388 17.877 47.2388 17.3065C47.2388 16.7232 47.7327 16.2541 48.3469 16.2541Z" fill="white"/>
<path d="M57.9658 24.1022C57.3895 24.1022 56.9399 23.6712 56.9399 23.126C56.9399 22.5871 57.3959 22.1497 57.9658 22.1497C58.542 22.1497 59.0106 22.5935 59.0043 23.145C58.9979 23.6838 58.5357 24.1086 57.9594 24.1022H57.9658Z" fill="white"/>
</g>
<defs>
<clipPath id="clip0_415_358">
<rect width="88" height="47" fill="white"/>
</clipPath>
</defs>
</svg>
