<svg width="67" height="66" viewBox="0 0 67 66" fill="none" xmlns="http://www.w3.org/2000/svg">
<path d="M66.5136 8.99866C66.3389 8.56792 65.9082 8.27688 65.4425 8.27688H58.3761V1.21042C58.3761 0.744751 58.0967 0.314011 57.6543 0.139387C57.2236 -0.0468794 56.723 0.0578952 56.3854 0.395502L51.4493 5.33155L49.412 7.36883L47.3398 9.44104C47.0953 9.68551 46.9673 10.0464 47.0022 10.3957L47.7007 16.6938L47.7589 17.2526L46.2804 18.731L38.6435 26.368L31.6935 33.318C31.2395 33.772 31.2395 34.5054 31.6935 34.9595C31.9263 35.1923 32.2174 35.2971 32.52 35.2971C32.8227 35.2971 33.1138 35.1807 33.3466 34.9595L39.4119 28.8942C40.448 30.2795 41.0301 31.9559 41.0301 33.7255C41.0301 35.8908 40.1919 37.9164 38.6552 39.4415C37.1301 40.9665 35.0928 41.8164 32.9391 41.8164C30.7854 41.8164 28.7482 40.9782 27.2231 39.4415C25.698 37.9164 24.8482 35.8792 24.8482 33.7255C24.8482 31.5718 25.6864 29.5345 27.2231 28.0094C29.2487 25.9838 32.229 25.1921 34.9997 25.9139C35.6167 26.0769 36.257 25.7044 36.42 25.0874C36.583 24.4704 36.2104 23.8301 35.5934 23.6671C32.0194 22.7241 28.1777 23.7602 25.57 26.368C23.6026 28.3354 22.5199 30.9547 22.5199 33.7371C22.5199 36.5194 23.6026 39.1388 25.57 41.1062C27.5374 43.0737 30.1568 44.1563 32.9391 44.1563C35.7215 44.1563 38.3408 43.0737 40.3083 41.1062C42.2757 39.1388 43.3584 36.5194 43.3584 33.7371C43.3584 31.3506 42.5551 29.0804 41.0766 27.2411L47.0721 21.2456C50.1338 24.7032 51.8218 29.0804 51.8218 33.7371C51.8218 38.7779 49.8544 43.5277 46.2921 47.09C42.7297 50.6524 37.98 52.6198 32.9391 52.6198C27.8983 52.6198 23.1485 50.6524 19.5862 47.09C12.2171 39.7209 12.2171 27.7417 19.5862 20.3725C25.7912 14.1675 35.349 13.0499 42.8229 17.6484C43.37 17.986 44.0918 17.8114 44.4294 17.2642C44.767 16.7171 44.5924 15.9953 44.0452 15.6577C35.6516 10.4888 24.9181 11.7461 17.9447 18.7194C9.66754 26.9966 9.66754 40.4543 17.9447 48.7199C21.9494 52.7246 27.2813 54.9365 32.9508 54.9365C38.6202 54.9365 43.9405 52.7246 47.9568 48.7199C51.9732 44.7151 54.1735 39.3833 54.1735 33.7138C54.1735 28.4402 52.2409 23.4692 48.7368 19.5692L49.4353 18.8707L56.2922 19.6275C56.2922 19.6275 56.3737 19.6275 56.4203 19.6275C56.723 19.6275 57.0256 19.511 57.2468 19.2898L58.2829 18.2537C65.3843 29.8604 63.673 44.9713 53.9523 54.692C42.3805 66.2638 23.5443 66.2638 11.9726 54.692C0.354244 43.1435 0.354244 24.3074 11.9377 12.7356C20.7504 3.92291 34.2546 1.54802 45.547 6.84496C46.1291 7.12436 46.8276 6.86824 47.0953 6.28616C47.3631 5.70408 47.1186 5.00558 46.5365 4.73783C34.3594 -0.966567 19.7957 1.58295 10.2845 11.0941C-2.19527 23.574 -2.19527 43.8886 10.2845 56.3684C16.5245 62.6083 24.7202 65.7283 32.9275 65.7283C41.1348 65.7283 49.3189 62.6083 55.5704 56.3684C66.1876 45.7512 67.9455 29.1852 59.9477 16.6006L66.2807 10.2676C66.6183 9.92999 66.7115 9.4294 66.5368 8.99866H66.5136ZM57.6427 15.5995L55.9663 17.2758L51.5192 16.7869L53.9173 14.3887C54.3714 13.9347 54.3714 13.2013 53.9173 12.7473C53.4633 12.2932 52.7299 12.2932 52.2759 12.7473L49.8777 15.1454L49.3887 10.6983L51.0651 9.02194L53.1024 6.98466L56.0594 4.02769V9.45268C56.0594 10.093 56.5833 10.6168 57.2236 10.6168H62.6485L57.6543 15.6111L57.6427 15.5995Z" fill="white"/>
</svg>
