<?xml version="1.0" encoding="utf-8"?>
<!-- Generator: Adobe Illustrator 27.3.1, SVG Export Plug-In . SVG Version: 6.00 Build 0)  -->
<svg version="1.1" id="Layer_1" xmlns="http://www.w3.org/2000/svg" xmlns:xlink="http://www.w3.org/1999/xlink" x="0px" y="0px"
	 viewBox="0 0 786 644" style="enable-background:new 0 0 786 644;" xml:space="preserve">
<style type="text/css">
	.st0{fill:#FAC13C;}
	.st1{fill:#579CE2;}
	.st2{fill:#E6255A;}
	.st3{fill:#FFFFFF;}
	.st4{fill:#34689F;}
	.st5{clip-path:url(#SVGID_00000134235238460922754890000006139867124165116059_);}
	.st6{fill:#E60B1C;}
	.st7{fill:#73122C;}
	.st8{clip-path:url(#SVGID_00000150076745188509764860000001258630126001724581_);}
	.st9{fill:#284B8F;}
	.st10{clip-path:url(#SVGID_00000176721325735000965900000005033118226194276999_);}
	.st11{fill:#C10210;}
	.st12{clip-path:url(#SVGID_00000169521018759737815450000008328794783360920732_);}
	.st13{fill:#529F47;}
	.st14{clip-path:url(#SVGID_00000085946968781232096090000013069056892976839858_);}
	.st15{fill:#FF9D42;}
	.st16{clip-path:url(#SVGID_00000146467398697952436940000006133415861598613934_);}
</style>
<ellipse class="st0" cx="771" cy="514.2" rx="15" ry="15"/>
<ellipse class="st0" cx="778.5" cy="462.8" rx="7.5" ry="7.5"/>
<ellipse class="st1" cx="712" cy="471.3" rx="43" ry="42.9"/>
<ellipse class="st0" cx="771" cy="512.2" rx="15" ry="15"/>
<ellipse class="st0" cx="778.5" cy="460.8" rx="7.5" ry="7.5"/>
<ellipse class="st1" cx="712" cy="469.3" rx="43" ry="42.9"/>
<g>
	<ellipse class="st2" cx="128.5" cy="537.2" rx="107" ry="106.8"/>
	<g>
		<path class="st3" d="M130.1,573.4c-21.5,0-41.9-12.5-50.9-33.4c-11.9-27.8,1.2-60,29.2-71.8c1.1-0.5,2.4,0,2.9,1.2
			c0.5,1.1,0,2.4-1.2,2.9c-25.7,10.9-37.8,40.5-26.9,66.1c5.3,12.4,15.1,22,27.7,27c12.6,5,26.4,4.9,38.8-0.3c1.1-0.5,2.4,0,2.9,1.2
			c0.5,1.1,0,2.4-1.2,2.9C144.5,572,137.2,573.4,130.1,573.4L130.1,573.4z"/>
		<path class="st3" d="M130,595.3c-1.2,0-2.2-1-2.2-2.2v-21.9c0-1.2,1-2.2,2.2-2.2c1.2,0,2.2,1,2.2,2.2v21.9
			C132.2,594.3,131.2,595.3,130,595.3z"/>
		<path class="st3" d="M130.1,562.4c-17.2,0-33.6-10-40.7-26.7c-4.6-10.8-4.7-22.7-0.3-33.5c4.4-10.8,12.8-19.3,23.7-23.9
			c22.4-9.4,48.4,1,57.9,23.2c9.5,22.2-1,48-23.4,57.4C141.7,561.3,135.8,562.4,130.1,562.4L130.1,562.4z M130,479.2
			c-5.2,0-10.4,1-15.5,3.1c-9.8,4.1-17.3,11.8-21.3,21.5c-4,9.8-3.9,20.5,0.3,30.2c8.6,20,31.9,29.4,52.1,20.9
			c20.2-8.5,29.6-31.7,21-51.7C160.1,488.3,145.4,479.2,130,479.2L130,479.2z"/>
		<path class="st3" d="M109.3,472.4c-0.9,0-1.7-0.5-2-1.3l-3.4-8.1c-0.5-1.1,0-2.4,1.2-2.9c1.1-0.5,2.4,0,2.9,1.2l3.4,8.1
			c0.5,1.1,0,2.4-1.2,2.9C109.9,472.4,109.6,472.4,109.3,472.4L109.3,472.4z"/>
		<path class="st3" d="M154.1,577.3c-0.9,0-1.7-0.5-2-1.3l-3.4-8.1c-0.5-1.1,0-2.4,1.2-2.9c1.1-0.5,2.4,0,2.9,1.2l3.4,8.1
			c0.5,1.1,0,2.4-1.2,2.9C154.7,577.2,154.4,577.3,154.1,577.3z"/>
		<path class="st3" d="M137,554.1c-0.2,0-0.4,0-0.5-0.1l-6.6-1.6c-3.2-0.8-5.9-3.1-7.2-6.1l-3.1-7.2l-3.8-0.7
			c-2.5-0.5-4.6-2.2-5.6-4.5l-0.2-0.4l-9.6-2.4c-0.7-0.2-1.2-0.6-1.5-1.3l-2.6-6l-4.1,1.7c-1.1,0.5-2.4,0-2.9-1.2
			c-0.5-1.1,0-2.4,1.2-2.9l6.1-2.6c1.1-0.5,2.4,0,2.9,1.2l3,7.1l9.6,2.4c0.7,0.2,1.2,0.6,1.5,1.3l0.6,1.4c0.4,1,1.3,1.7,2.4,1.9
			l4.9,0.9c0.7,0.1,1.3,0.6,1.6,1.3l3.5,8.3c0.8,1.8,2.3,3.1,4.2,3.5l2.4,0.6l-0.9-2c-0.2-0.5-0.2-1.1,0-1.7l1.5-3.8
			c0.3-0.7,0.3-1.5,0-2.2l-4.9-11.4c-0.6-1.3-1.5-2.3-2.8-2.8c-1.4-0.5-2.8-0.5-4.1,0l-5.3,2.2c-0.5,0.2-1.1,0.2-1.7,0l-5.8-2.3
			c-0.6-0.2-1-0.6-1.2-1.2l-2.6-6c-0.5-1.1,0-2.4,1.2-2.9l6.1-2.6c2.1-0.9,3.7-2.5,4.5-4.5l5.6-13.8l-2.7-6.2
			c-0.5-1.1,0-2.4,1.2-2.9c1.1-0.5,2.4,0,2.9,1.2l3,7.1c0.2,0.5,0.2,1.1,0,1.7l-6,14.6c-1.3,3.2-3.7,5.6-6.9,6.9l-4.1,1.7l1.4,3.2
			l4.1,1.6l4.5-1.9c2.4-1,5-1,7.4-0.1c2.5,1,4.3,2.8,5.3,5.2l4.9,11.4c0.7,1.8,0.8,3.7,0,5.5l-1.2,3l2.2,5.2
			c0.3,0.8,0.2,1.6-0.4,2.3C138.3,553.8,137.7,554,137,554.1L137,554.1z"/>
		<path class="st3" d="M165.5,542.1c-0.9,0-1.7-0.5-2-1.3l-2.2-5.1l-5.8-1.6c-0.6-0.2-1.2-0.6-1.4-1.2l-6.1-14.3l-7.6-3
			c-1.4-0.5-2.5-1.6-3-3c-0.6-1.4-0.6-2.9,0-4.2l3-7.4c0.9-2.1,2.5-3.8,4.7-4.7l7.7-3.2c1.1-0.5,2.4,0,2.9,1.2
			c0.5,1.1,0,2.4-1.2,2.9l-7.7,3.2c-1,0.4-1.9,1.3-2.3,2.3l-3,7.4c-0.1,0.3-0.1,0.6,0,0.9c0.1,0.3,0.4,0.5,0.6,0.6l8.4,3.4
			c0.6,0.2,1,0.6,1.2,1.2l6,14.1l5.8,1.6c0.6,0.2,1.2,0.6,1.4,1.2l2.6,6c0.5,1.1,0,2.4-1.2,2.9C166,542,165.7,542.1,165.5,542.1
			L165.5,542.1z"/>
		<path class="st3" d="M158.7,595.8h-57.4c-1.2,0-2.2-1-2.2-2.2c0-1.2,1-2.2,2.2-2.2h57.4c1.2,0,2.2,1,2.2,2.2
			C160.9,594.8,159.9,595.8,158.7,595.8z"/>
		<path class="st3" d="M130.1,573.4c-21.5,0-41.9-12.5-50.9-33.4c-11.9-27.8,1.2-60,29.2-71.8c1.1-0.5,2.4,0,2.9,1.2
			c0.5,1.1,0,2.4-1.2,2.9c-25.7,10.9-37.8,40.5-26.9,66.1c5.3,12.4,15.1,22,27.7,27c12.6,5,26.4,4.9,38.8-0.3c1.1-0.5,2.4,0,2.9,1.2
			c0.5,1.1,0,2.4-1.2,2.9C144.5,572,137.2,573.4,130.1,573.4L130.1,573.4z"/>
		<path class="st3" d="M130,595.3c-1.2,0-2.2-1-2.2-2.2v-21.9c0-1.2,1-2.2,2.2-2.2c1.2,0,2.2,1,2.2,2.2v21.9
			C132.2,594.3,131.2,595.3,130,595.3z"/>
		<path class="st3" d="M130.1,562.4c-17.2,0-33.6-10-40.7-26.7c-4.6-10.8-4.7-22.7-0.3-33.5c4.4-10.8,12.8-19.3,23.7-23.9
			c22.4-9.4,48.4,1,57.9,23.2c9.5,22.2-1,48-23.4,57.4C141.7,561.3,135.8,562.4,130.1,562.4L130.1,562.4z M130,479.2
			c-5.2,0-10.4,1-15.5,3.1c-9.8,4.1-17.3,11.8-21.3,21.5c-4,9.8-3.9,20.5,0.3,30.2c8.6,20,31.9,29.4,52.1,20.9
			c20.2-8.5,29.6-31.7,21-51.7C160.1,488.3,145.4,479.2,130,479.2L130,479.2z"/>
		<path class="st3" d="M109.3,472.4c-0.9,0-1.7-0.5-2-1.3l-3.4-8.1c-0.5-1.1,0-2.4,1.2-2.9c1.1-0.5,2.4,0,2.9,1.2l3.4,8.1
			c0.5,1.1,0,2.4-1.2,2.9C109.9,472.4,109.6,472.4,109.3,472.4L109.3,472.4z"/>
		<path class="st3" d="M154.1,577.3c-0.9,0-1.7-0.5-2-1.3l-3.4-8.1c-0.5-1.1,0-2.4,1.2-2.9c1.1-0.5,2.4,0,2.9,1.2l3.4,8.1
			c0.5,1.1,0,2.4-1.2,2.9C154.7,577.2,154.4,577.3,154.1,577.3z"/>
		<path class="st3" d="M137,554.1c-0.2,0-0.4,0-0.5-0.1l-6.6-1.6c-3.2-0.8-5.9-3.1-7.2-6.1l-3.1-7.2l-3.8-0.7
			c-2.5-0.5-4.6-2.2-5.6-4.5l-0.2-0.4l-9.6-2.4c-0.7-0.2-1.2-0.6-1.5-1.3l-2.6-6l-4.1,1.7c-1.1,0.5-2.4,0-2.9-1.2
			c-0.5-1.1,0-2.4,1.2-2.9l6.1-2.6c1.1-0.5,2.4,0,2.9,1.2l3,7.1l9.6,2.4c0.7,0.2,1.2,0.6,1.5,1.3l0.6,1.4c0.4,1,1.3,1.7,2.4,1.9
			l4.9,0.9c0.7,0.1,1.3,0.6,1.6,1.3l3.5,8.3c0.8,1.8,2.3,3.1,4.2,3.5l2.4,0.6l-0.9-2c-0.2-0.5-0.2-1.1,0-1.7l1.5-3.8
			c0.3-0.7,0.3-1.5,0-2.2l-4.9-11.4c-0.6-1.3-1.5-2.3-2.8-2.8c-1.4-0.5-2.8-0.5-4.1,0l-5.3,2.2c-0.5,0.2-1.1,0.2-1.7,0l-5.8-2.3
			c-0.6-0.2-1-0.6-1.2-1.2l-2.6-6c-0.5-1.1,0-2.4,1.2-2.9l6.1-2.6c2.1-0.9,3.7-2.5,4.5-4.5l5.6-13.8l-2.7-6.2
			c-0.5-1.1,0-2.4,1.2-2.9c1.1-0.5,2.4,0,2.9,1.2l3,7.1c0.2,0.5,0.2,1.1,0,1.7l-6,14.6c-1.3,3.2-3.7,5.6-6.9,6.9l-4.1,1.7l1.4,3.2
			l4.1,1.6l4.5-1.9c2.4-1,5-1,7.4-0.1c2.5,1,4.3,2.8,5.3,5.2l4.9,11.4c0.7,1.8,0.8,3.7,0,5.5l-1.2,3l2.2,5.2
			c0.3,0.8,0.2,1.6-0.4,2.3C138.3,553.8,137.7,554,137,554.1L137,554.1z"/>
		<path class="st3" d="M165.5,542.1c-0.9,0-1.7-0.5-2-1.3l-2.2-5.1l-5.8-1.6c-0.6-0.2-1.2-0.6-1.4-1.2l-6.1-14.3l-7.6-3
			c-1.4-0.5-2.5-1.6-3-3c-0.6-1.4-0.6-2.9,0-4.2l3-7.4c0.9-2.1,2.5-3.8,4.7-4.7l7.7-3.2c1.1-0.5,2.4,0,2.9,1.2
			c0.5,1.1,0,2.4-1.2,2.9l-7.7,3.2c-1,0.4-1.9,1.3-2.3,2.3l-3,7.4c-0.1,0.3-0.1,0.6,0,0.9c0.1,0.3,0.4,0.5,0.6,0.6l8.4,3.4
			c0.6,0.2,1,0.6,1.2,1.2l6,14.1l5.8,1.6c0.6,0.2,1.2,0.6,1.4,1.2l2.6,6c0.5,1.1,0,2.4-1.2,2.9C166,542,165.7,542.1,165.5,542.1
			L165.5,542.1z"/>
		<path class="st3" d="M158.7,595.8h-57.4c-1.2,0-2.2-1-2.2-2.2c0-1.2,1-2.2,2.2-2.2h57.4c1.2,0,2.2,1,2.2,2.2
			C160.9,594.8,159.9,595.8,158.7,595.8z"/>
	</g>
</g>
<g>
	<ellipse class="st4" cx="392.5" cy="106.8" rx="107" ry="106.8"/>
	<g>
		<defs>
			<rect id="SVGID_1_" x="320" y="47.8" width="145" height="118.1"/>
		</defs>
		<clipPath id="SVGID_00000124842570934124483710000004351434897221360285_">
			<use xlink:href="#SVGID_1_"  style="overflow:visible;"/>
		</clipPath>
		<g style="clip-path:url(#SVGID_00000124842570934124483710000004351434897221360285_);">
			<path class="st3" d="M464.9,127.5c0-0.2,0-0.3-0.1-0.4c0-0.1,0-0.2,0-0.3c0-0.1-0.1-0.1-0.1-0.2c0-0.1,0-0.1-0.1-0.2l-19.1-29.4
				c0,0-0.2-0.2-0.2-0.3c-0.1-0.1-0.2-0.2-0.3-0.3c-0.1-0.1-0.3-0.2-0.5-0.3c-0.1,0-0.2-0.1-0.3-0.1c-0.2,0-0.4,0-0.6-0.1
				c-0.1,0-0.2,0-0.3,0c-0.4,0-8,0.8-18,3.6l12.2-45.3c0.3-1.2-0.4-2.5-1.7-2.8l-13.6-3.6c-0.9-0.2-1.8,0.1-2.4,0.8
				c-0.2,0.3-0.4,0.5-0.5,0.9L406,99c0,0,0,0,0,0.1c0,0.2,0,0.3,0,0.5c0,0.2,0,0.3,0,0.5c0,0,0,0,0,0.1l1.6,7.8l1.5,7.5
				c0.2,0.9,0.8,1.6,1.7,1.8c0.2,0,0.4,0.1,0.6,0.1c0.7,0,1.3-0.3,1.8-0.8l10.2-11.5c8.6-2.5,16-3.7,18.9-4.1l16,24.6
				c-10.4,0.3-37.1,2.1-55.4,12.8c-1.1,0.7-1.5,2.1-0.8,3.2c0.4,0.7,1.2,1.1,2,1.1c0.4,0,0.8-0.1,1.2-0.3
				c18.3-10.7,46.7-12.1,54.9-12.2v5.6c-8.6,0.2-38.1,1.3-52.6,9.6c-1.1,0.6-1.5,2.1-0.9,3.2c0.4,0.7,1.2,1.2,2,1.2
				c0.4,0,0.8-0.1,1.2-0.3c13.4-7.6,41.9-8.8,50.3-9v4.5c-9.4-0.2-42.7,0.3-61.7,16.4h-12.2c-17.1-16.1-52.1-16.6-61.7-16.4v-4.5
				c8.3,0.2,36.9,1.4,50.3,9c0.4,0.2,0.8,0.3,1.2,0.3c0.8,0,1.6-0.4,2-1.2c0.6-1.1,0.3-2.5-0.9-3.2c-14.5-8.3-44-9.4-52.6-9.6v-5.6
				c8.2,0.2,36.6,1.5,54.9,12.2c0.4,0.2,0.8,0.3,1.2,0.3c0.7,0,1.4-0.3,1.8-0.9c0.7-0.9,0.7-2.2-0.1-3c-0.9-1-21.3-23.3-35.7-29.9
				c1.4-2.4,2.9-5.2,4.4-8.2c3.2-6.2,5.9-12.2,7.3-15.3c7.2,4,29.8,17.5,31.6,32c0,0.1,0,0.1,0.1,0.2c-0.1,0.4-0.1,0.8,0,1.2
				c-0.1,0.2-0.1,0.4-0.1,0.7v16.3c0,1.3,1.1,2.3,2.3,2.3c1.3,0,2.3-1,2.3-2.3v-16.3c0,0,0-0.2,0-0.3c2.4-2,5.2-3.9,8.3-5.7
				c1.1-0.7,1.5-2.1,0.9-3.2c-0.6-1.1-2.1-1.5-3.2-0.9c-2.4,1.4-4.5,2.8-6.6,4.3c-5.2-18.3-34.4-33-35.7-33.7
				c-0.6-0.3-1.2-0.3-1.8-0.1c-0.6,0.2-1.1,0.7-1.4,1.3c0,0.1-3.3,7.5-7.4,15.8c-3.7-0.7-6-0.9-6.1-0.9c-0.1,0-0.2,0-0.3,0
				c-0.2,0-0.4,0-0.6,0c-0.1,0-0.2,0.1-0.4,0.1c-0.2,0.1-0.3,0.1-0.4,0.2c-0.1,0.1-0.2,0.2-0.3,0.3c-0.1,0.1-0.2,0.1-0.2,0.2
				l-19.1,29.4c0,0,0,0.1-0.1,0.2c0,0.1-0.1,0.1-0.1,0.2c0,0.1,0,0.2,0,0.3c0,0.1-0.1,0.3-0.1,0.4c0,0.1,0,0.1,0,0.2v19.6
				c0,0.6,0.3,1.3,0.7,1.7c0.5,0.4,1.1,0.7,1.7,0.6c0.4,0,43.6-2.1,61.3,15.6c0.4,0.4,1,0.7,1.7,0.7h14c0.6,0,1.1-0.2,1.5-0.6
				c20.1-17.8,61-15.7,61.4-15.7c0.6,0,1.3-0.2,1.7-0.6c0.5-0.4,0.7-1,0.7-1.7v-19.6C465,127.7,464.9,127.6,464.9,127.5L464.9,127.5
				z M370.3,132.9c-16.6-6-35.4-7.2-43.7-7.5l16-24.6c0.7,0.1,1.7,0.2,3,0.4c-1.5,2.8-2.9,5.3-4.2,7.5c-0.4,0.6-0.4,1.4-0.2,2
				c0.2,0.7,0.8,1.2,1.4,1.4C350.8,114.9,362.4,125.2,370.3,132.9L370.3,132.9z M423.2,52.9l9,2.4l-12.1,45l-9-2.4L423.2,52.9
				L423.2,52.9z M412.8,109.9l-0.6-3l-0.8-4.1l6.2,1.7L412.8,109.9L412.8,109.9z"/>
		</g>
	</g>
</g>
<g>
	<ellipse class="st6" cx="657.5" cy="106.8" rx="107" ry="106.8"/>
	<path class="st3" d="M715.6,160.1l-36.6-28.8c0,0-0.1-0.1-0.2-0.1c0,0,0,0-0.1,0l-0.9-25.7c3.1-0.5,5.5-3.1,5.5-6.3
		c0-3.2-2.4-5.9-5.6-6.3V81.9c4.1-4.6,7.9-3.1,13.7-0.3c2.9,1.4,6.3,3,9.7,3c2.9,0,5.9-1.2,8.8-4.5c0.3-0.3,0.5-0.8,0.5-1.2
		l0.3-19.2c0-0.8-0.5-1.5-1.2-1.8c-0.8-0.3-1.6-0.1-2.1,0.5c-4.3,5-8.2,3.5-14.2,0.6c-4.5-2.2-10-4.8-15.4-1.5V52
		c0-1.1-0.9-1.9-1.9-1.9c-1.1,0-1.9,0.9-1.9,1.9v9.5c0,0.2,0,0.3,0,0.4v30.7h-9.7c-2.2-2.5-9-10.1-14.8-14.5
		c5.2-1.1,9.2-5.7,9.2-11.3c0-6.4-5.2-11.6-11.6-11.6c-6.4,0-11.6,5.2-11.6,11.6c0,3.1,1.3,6,3.3,8.1c-2.5,0.6-4.8,2-6.4,4.2
		c0,0-0.1,0.1-0.1,0.1c-0.2,0.2-0.4,0.4-0.5,0.7V80c-0.6,0.9-1,1.8-1.2,2.6l-7.4,23l-0.1,0.2c-0.9,2.7-1.3,5.2-1,7.4l0.8,17.2
		l-9.6,25v0.1l-13.2,4.3c-1,0.3-1.6,1.4-1.2,2.4c0.3,0.8,1,1.3,1.8,1.3c0.2,0,0.4,0,0.6-0.1l14.1-4.6c0,0,0,0,0.1,0
		c0.2-0.1,0.3-0.2,0.5-0.3c0.1,0,0.1-0.1,0.2-0.2c0.1-0.1,0.2-0.2,0.3-0.4c0-0.1,0.1-0.1,0.1-0.2c0,0,0-0.1,0.1-0.1l0.3-0.9
		l9.8-25.4c0.1-0.3,0.1-0.5,0.1-0.8l-0.5-10.7c0.9,0.6,1.9,1.1,3.1,1.4c1.5,0.4,3.2,0.8,4.9,1.1v8.7c0,0.9-0.2,1.8-0.8,2.7l-8.3,17
		c0,0,0,0,0,0c-0.1,0.1-0.1,0.3-0.1,0.4c0,0.1-0.1,0.2-0.1,0.3c0,0.1,0,0.2,0,0.3c0,0.2,0,0.3,0.1,0.4c0,0,0,0,0,0
		c0.1,0.2,0.2,0.4,0.3,0.5c0,0,0.1,0.1,0.1,0.1c0.1,0.1,0.3,0.2,0.4,0.3c0,0,0.1,0,0.1,0.1c0,0,0.1,0,0.1,0c0.2,0.1,0.5,0.2,0.7,0.2
		c0.2,0,0.4,0,0.6-0.1c0,0,0.1,0,0.1,0l22.3-8.6c0,0,0,0,0,0c0.1-0.1,0.2-0.1,0.3-0.2c0.1-0.1,0.2-0.1,0.3-0.2
		c0.1-0.1,0.1-0.2,0.2-0.3c0.1-0.1,0.2-0.2,0.2-0.3c0-0.1,0-0.2,0.1-0.3c0-0.1,0.1-0.3,0.1-0.4v0l-0.3-19.8c0-0.9-0.7-1.7-1.6-1.9
		c-0.1,0-11.6-1.9-18.8-3.8c-1.8-0.4-3-1.4-3.8-2.8c-0.4-0.7-0.6-1.5-0.6-2.4l-0.1-1.1c0,0,0-0.1,0-0.1c0-1.3,0.3-2.7,0.9-4.2
		c0,0,0,0,0,0c0,0,0,0,0,0l0.1-0.2l7.4-23.1c0.2-0.6,0.4-1.2,0.9-1.9l0.1-0.2c0,0,0.1-0.1,0.1-0.2c1.7-2.3,4.7-3.3,7.4-2.7
		c0.1,0,0.1,0,0.2,0c4.8,1.6,15.3,12.9,18.9,17.1c0.4,0.4,0.9,0.7,1.5,0.7h13.5c1.4,0,2.6,1.2,2.6,2.6c0,1.4-1.2,2.6-2.6,2.6h-17.4
		l-10.6-9.1l-4.7-4c-0.8-0.7-2-0.6-2.7,0.2c-0.7,0.8-0.6,2,0.2,2.7l3.7,3.2l-3.9,11.7c-0.3,0.9,0.1,1.9,1,2.3l13.6,6.8
		c1.4,0.7,2.2,2.2,2.1,3.7l-1.5,20c0,0,0,0,0,0c0,0.1,0,0.3,0.1,0.4c0,0.1,0,0.2,0.1,0.3c0,0,0,0,0,0c0.1,0.2,0.2,0.4,0.3,0.5
		c0,0,0.1,0.1,0.1,0.1c0.1,0.1,0.3,0.2,0.4,0.3c0.1,0,0.1,0.1,0.2,0.1c0.2,0.1,0.3,0.1,0.5,0.1c0,0,0.1,0,0.1,0c0,0,0.1,0,0.1,0
		c0,0,0,0,0.1,0c0.2,0,0.4,0,0.6-0.1l15.1-5.8l-7.5,16.4l-8.1-1.6c-0.7-0.2-1.4,0.1-1.9,0.7l-7.7,9.6c-0.7,0.8-0.5,2,0.3,2.7
		c0.3,0.3,0.8,0.4,1.2,0.4c0.6,0,1.1-0.2,1.5-0.7l7-8.7l8.5,1.7c0.9,0.2,1.8-0.3,2.1-1.1l8.6-18.9l34.7,27.3
		c0.3,0.3,0.8,0.4,1.2,0.4c0.6,0,1.1-0.2,1.5-0.7C716.5,162,716.4,160.8,715.6,160.1L715.6,160.1z M647.2,141.7l-16.5,6.3l6.1-12.5
		c0.8-1.3,1.2-2.9,1.2-4.5v-7.9c3.6,0.7,7,1.3,8.9,1.7L647.2,141.7L647.2,141.7z M646.9,59.1c4.3,0,7.7,3.5,7.7,7.7
		c0,4.2-3.5,7.7-7.7,7.7c-4.3,0-7.7-3.5-7.7-7.7C639.2,62.6,642.7,59.1,646.9,59.1z M691.4,62.3c4.5,2.2,10,4.8,15.4,1.5L706.5,78
		c-4.1,4.3-7.8,2.8-13.5,0.1c-4.5-2.2-10-4.8-15.4-1.3V62.3C681.8,58,685.6,59.5,691.4,62.3L691.4,62.3z M657.8,112l-12.1-6l2.9-8.6
		l8.9,7.7c0.3,0.3,0.8,0.5,1.3,0.5h15.2l0.9,25.6l-14,5.4l1.2-17C662.3,116.3,660.6,113.4,657.8,112L657.8,112z"/>
</g>
<g>
	<ellipse class="st7" cx="392.5" cy="537.2" rx="107" ry="106.8"/>
	<g>
		<defs>
			<rect id="SVGID_00000149361652094832730030000016561934262336790918_" x="327.9" y="478.3" width="129.2" height="117.8"/>
		</defs>
		<clipPath id="SVGID_00000176763165743293727290000001173642455058022317_">
			<use xlink:href="#SVGID_00000149361652094832730030000016561934262336790918_"  style="overflow:visible;"/>
		</clipPath>
		<g style="clip-path:url(#SVGID_00000176763165743293727290000001173642455058022317_);">
			<path class="st3" d="M327.9,508.6c0,0.1,0.1,0.2,0.1,0.4c0,0.2,0.1,0.3,0.2,0.4c0,0,0,0.1,0,0.1l32.3,44.8
				c-0.8,2.8-1.2,5.7-1.2,8.6c0,18.3,14.9,33.2,33.3,33.2c18.4,0,33.3-14.9,33.3-33.2c0-2.9-0.4-5.8-1.2-8.7l31.9-44.7
				c0,0,0-0.1,0-0.1c0.1-0.1,0.1-0.3,0.2-0.4c0-0.1,0.1-0.2,0.1-0.4c0-0.1,0-0.3,0-0.4c0-0.1,0-0.3,0-0.4c0-0.1-0.1-0.2-0.1-0.4
				c-0.1-0.2-0.1-0.3-0.2-0.4c0,0,0-0.1,0-0.1l-21.5-27.8c0,0-0.1-0.1-0.2-0.1c-0.1-0.1-0.2-0.2-0.3-0.3c-0.1,0-0.1,0-0.2-0.1
				c-0.1-0.1-0.2-0.1-0.3-0.2c-0.2-0.1-0.4-0.1-0.6-0.1c-0.1,0-0.1,0-0.2,0h-81.6c0,0-0.1,0-0.2,0c-0.2,0-0.4,0.1-0.5,0.1
				c-0.1,0-0.2,0.1-0.3,0.2c-0.1,0-0.1,0-0.2,0.1c-0.1,0.1-0.2,0.2-0.2,0.3c-0.1,0.1-0.2,0.1-0.2,0.2l-21.9,27.8c0,0,0,0.1-0.1,0.1
				c-0.1,0.1-0.1,0.3-0.2,0.4c0,0.1-0.1,0.2-0.1,0.4c0,0.1,0,0.3,0,0.4C327.9,508.3,327.9,508.5,327.9,508.6L327.9,508.6z
				 M351.8,484l33.6,46.5c-10.3,2.3-18.8,9.3-23.1,18.9l-29.6-41L351.8,484z M452.3,508.3l-29.3,41c-4.3-9.5-12.8-16.5-23.1-18.8
				l33.6-46.5L452.3,508.3L452.3,508.3z M412.3,506.1c0,0-0.2,0-0.2,0h-27.9c-1.2,0-2.1,1-2.1,2.1c0,1.2,1,2.1,2.1,2.1h25.1
				l-14,19.4c-1.7-0.2-3.3-0.2-5,0l-34.1-47.2h73.3L412.3,506.1L412.3,506.1z M392.7,591.8c-16,0-29-13-29-28.9
				c0-2.8,0.4-5.7,1.3-8.4c3.4-11,13-19,24.4-20.3c2.4-0.3,4.2-0.3,6.6,0c11.5,1.3,21,9.3,24.4,20.2c0.8,2.7,1.3,5.6,1.3,8.5
				C421.7,578.8,408.7,591.8,392.7,591.8L392.7,591.8z"/>
			<path class="st3" d="M407.3,554.5l-6.7-1c-0.2,0-0.5-0.2-0.6-0.4l-3-6c-0.9-1.7-2.6-2.8-4.5-2.8s-3.6,1.1-4.5,2.8l-3.1,6
				c-0.1,0.2-0.3,0.4-0.6,0.4l-6.7,1c-1.9,0.3-3.4,1.6-4,3.4c-0.6,1.8-0.1,3.8,1.2,5.1l4.8,4.8c0.2,0.2,0.3,0.4,0.2,0.6l-1.1,6.7
				c-0.3,1.9,0.5,3.7,2,4.9c0.9,0.6,1.9,1,3,1c0.8,0,1.6-0.2,2.3-0.6l6-3.1c0.2-0.1,0.5-0.1,0.7,0l6,3.1c1.7,0.9,3.7,0.7,5.3-0.4
				c1.5-1.1,2.3-3,2-4.9l-1.1-6.7c0-0.2,0-0.5,0.2-0.6l4.8-4.8c1.4-1.3,1.8-3.3,1.2-5.1C410.7,556.1,409.2,554.8,407.3,554.5
				L407.3,554.5z M407,560l-4.8,4.8c-1.2,1.1-1.7,2.8-1.4,4.4l1.1,6.7c0.1,0.4-0.2,0.6-0.3,0.7c-0.1,0.1-0.4,0.2-0.8,0.1l-6-3.1
				c-1.4-0.8-3.2-0.8-4.6,0l-6,3.1c-0.4,0.2-0.6,0-0.8-0.1c-0.2-0.1-0.4-0.3-0.3-0.7l1.1-6.7c0.3-1.6-0.3-3.2-1.4-4.4L378,560
				c-0.3-0.3-0.2-0.6-0.2-0.8c0-0.2,0.2-0.4,0.6-0.5l6.7-1c1.6-0.3,3-1.3,3.7-2.7l3-6c0.2-0.4,0.5-0.4,0.7-0.4
				c0.2,0,0.5,0.1,0.7,0.4l3,6c0.7,1.4,2.1,2.4,3.7,2.7l6.7,1c0.4,0.1,0.5,0.3,0.6,0.5C407.3,559.4,407.3,559.7,407,560z"/>
		</g>
	</g>
</g>
<g>
	<ellipse class="st9" cx="657.5" cy="537.2" rx="107" ry="106.8"/>
	<g>
		<defs>
			<rect id="SVGID_00000052824091460965124220000017669745718348812680_" x="609.5" y="479.2" width="95.9" height="115.9"/>
		</defs>
		<clipPath id="SVGID_00000147218510737645685930000016647621018696466617_">
			<use xlink:href="#SVGID_00000052824091460965124220000017669745718348812680_"  style="overflow:visible;"/>
		</clipPath>
		<g style="clip-path:url(#SVGID_00000147218510737645685930000016647621018696466617_);">
			<path class="st3" d="M695.2,578.8h-22.6c-0.2-1.9-0.8-3.7-1.7-5.4c11.1-5.5,18.2-16.7,18.2-29.2c0-10-4.6-19.3-12.3-25.4
				l12.4-12.4c0.8-0.8,0.8-2.1,0-2.9l-2.5-2.5l10.5-10.4c0.4-0.4,0.6-0.9,0.6-1.4c0-0.5-0.2-1.1-0.6-1.4l-7.9-7.9
				c-0.8-0.8-2.1-0.8-2.9,0l-10.5,10.4l-2.5-2.5c-0.8-0.8-2.1-0.8-2.9,0l-31.8,31.2l-2.9,2.9c-0.8,0.8-0.8,2.1,0,2.9l2.5,2.5
				l-4.5,4.5c-0.4,0.4-0.6,0.9-0.6,1.4s0.2,1.1,0.6,1.4l7.9,7.9c0.4,0.4,0.9,0.6,1.4,0.6c0.6,0,1.1-0.2,1.4-0.6l4.5-4.5l2.5,2.5
				c0.4,0.4,0.9,0.6,1.4,0.6c0.5,0,1-0.2,1.4-0.6l19.4-18.9c7,5.4,11.2,13.7,11.2,22.5c0,11.1-6.4,21.1-16.4,25.8
				c-3.1-3.4-7.5-5.4-12.1-5.4c-4.6,0-9,2-12.1,5.4c-4.5-2.1-8.4-5.4-11.3-9.5h5c1.1,0,2-0.9,2-2c0-1.1-0.9-2-2-2h-16.4
				c-1.1,0-2,0.9-2,2c0,1.1,0.9,2,2,2h6.5c3.2,5.6,8,10,13.8,12.9c-0.9,1.7-1.5,3.5-1.7,5.4h-20.5c-5.6,0-10.2,4.6-10.2,10.2v4.1
				c0,1.1,0.9,2,2,2h91.8c1.1,0,2-0.9,2-2V589C705.5,583.4,700.9,578.8,695.2,578.8z M687.8,484.1l5.1,5l-9,9l-5-5L687.8,484.1
				L687.8,484.1z M643.1,538.2l-5-5l3.1-3.1l5,5L643.1,538.2L643.1,538.2z M653.1,536.3l-2.6-2.5l-7.9-7.9l-2.5-2.5l1.5-1.5
				l30.3-29.8l2.5,2.5l7.9,7.9l2.5,2.5l-12.6,12.6L653.1,536.3L653.1,536.3z M701.4,591.1h-87.7v-2c0-3.4,2.8-6.1,6.1-6.1h22.4
				c1.1,0,2-0.9,2-2c0-2.6,0.8-5.1,2.3-7.2c2.3-3.2,6-5,9.9-5c3.9,0,7.6,1.9,9.9,5c1.1,1.5,1.9,3.3,2.2,5.1h-10c-1.1,0-2,0.9-2,2
				c0,1.1,0.9,2,2,2h36.7c3.4,0,6.1,2.7,6.1,6.1L701.4,591.1L701.4,591.1z"/>
		</g>
	</g>
</g>
<g>
	<ellipse class="st11" cx="253.5" cy="320.5" rx="107" ry="106.8"/>
	<g>
		<defs>
			<rect id="SVGID_00000016754135852892731230000001369542817160758149_" x="192.9" y="251.6" width="121.3" height="137.8"/>
		</defs>
		<clipPath id="SVGID_00000026853824804687965530000009396822450817467522_">
			<use xlink:href="#SVGID_00000016754135852892731230000001369542817160758149_"  style="overflow:visible;"/>
		</clipPath>
		<g style="clip-path:url(#SVGID_00000026853824804687965530000009396822450817467522_);">
			<path class="st3" d="M253.5,273.5c-0.2,0-0.4,0-0.6,0c-21.6,0-38.8,16.9-39.3,38.8c-0.2,10.9,3.9,18.9,10.2,27.6
				c1.4,2,2.7,3.5,3.9,4.8c2.8,3.3,4.7,5.4,6.1,12.4c0.2,1,1.1,1.7,2.1,1.7c0.1,0,0.2,0,0.3,0c0.1,0,0.1,0,0.2,0h32.2v4.3H236
				c-1.2,0-2.2,1-2.2,2.2c0,1.2,1,2.2,2.2,2.2h32.8v4.4H236c-1.2,0-2.2,1-2.2,2.2s1,2.2,2.2,2.2h29.2l-4.4,8.7h-14.8l-1.6-3.2
				c-0.5-1.1-1.9-1.5-2.9-1c-1.1,0.5-1.5,1.9-1,2.9l2.2,4.4c0.4,0.7,1.1,1.2,1.9,1.2h17.5c0.8,0,1.6-0.5,1.9-1.2l5.9-11.9h0.8
				c1.2,0,2.2-1,2.2-2.2v-8.7c0,0,0,0,0,0c0,0,0,0,0,0v-8.4c1.4-6.8,3.3-9,6.1-12.2c1.1-1.3,2.4-2.8,3.9-4.8
				c6.3-8.7,10.5-16.7,10.2-27.6C292.9,290.2,275.3,273.1,253.5,273.5L253.5,273.5z M279.6,337.3c-1.3,1.8-2.5,3.2-3.6,4.5
				c-2.8,3.3-5.1,5.9-6.7,12.7h-31.4c-1.6-6.8-3.9-9.4-6.7-12.7c-1.1-1.3-2.3-2.7-3.6-4.5c-6-8.2-9.6-15.2-9.4-24.9
				c0.4-19.4,15.7-34.5,34.9-34.5c0.2,0,0.4,0,0.5,0c0,0,0,0,0,0c0,0,0,0,0,0c19.4-0.4,35,14.8,35.5,34.5
				C289.2,322,285.5,329.1,279.6,337.3L279.6,337.3z"/>
			<path class="st3" d="M253.5,265.3c1.2,0,2.2-1,2.2-2.2v-9.3c0-1.2-1-2.2-2.2-2.2s-2.2,1-2.2,2.2v9.3
				C251.3,264.3,252.3,265.3,253.5,265.3z"/>
			<path class="st3" d="M232.7,267.7c0.3,0.9,1.2,1.4,2,1.4c0.3,0,0.6,0,0.8-0.2c1.1-0.5,1.6-1.7,1.2-2.9l-1.7-4
				c-0.5-1.1-1.7-1.6-2.9-1.2c-1.1,0.5-1.6,1.7-1.2,2.9L232.7,267.7L232.7,267.7z"/>
			<path class="st3" d="M203.2,293.8l4,1.7c0.3,0.1,0.5,0.2,0.8,0.2c0.9,0,1.7-0.5,2-1.4c0.5-1.1-0.1-2.4-1.2-2.9l-4-1.7
				c-1.1-0.5-2.4,0.1-2.9,1.2C201.5,292.1,202.1,293.4,203.2,293.8L203.2,293.8z"/>
			<path class="st3" d="M210.1,330.3c-0.5-1.1-1.7-1.6-2.9-1.2l-4,1.7c-1.1,0.5-1.6,1.7-1.2,2.9c0.3,0.8,1.2,1.4,2,1.4
				c0.3,0,0.6,0,0.8-0.2l4-1.7C210,332.7,210.5,331.4,210.1,330.3L210.1,330.3z"/>
			<path class="st3" d="M303.8,330.8l-4-1.7c-1.1-0.5-2.4,0.1-2.9,1.2c-0.5,1.1,0.1,2.4,1.2,2.9l4,1.7c0.3,0.1,0.5,0.2,0.8,0.2
				c0.9,0,1.7-0.5,2-1.4C305.4,332.5,304.9,331.2,303.8,330.8L303.8,330.8z"/>
			<path class="st3" d="M296.9,294.3c0.3,0.9,1.2,1.4,2,1.4c0.3,0,0.6,0,0.8-0.2l4-1.7c1.1-0.5,1.6-1.7,1.2-2.9
				c-0.5-1.1-1.7-1.6-2.9-1.2l-4,1.7C296.9,291.9,296.4,293.2,296.9,294.3L296.9,294.3z"/>
			<path class="st3" d="M271.5,268.9c0.3,0.1,0.5,0.2,0.8,0.2c0.9,0,1.7-0.5,2-1.4l1.7-4c0.5-1.1-0.1-2.4-1.2-2.9
				c-1.1-0.5-2.4,0.1-2.9,1.2l-1.7,4C269.8,267.1,270.3,268.4,271.5,268.9L271.5,268.9z"/>
			<path class="st3" d="M217.2,279.1c0.4,0.4,1,0.6,1.6,0.6c0.6,0,1.1-0.2,1.6-0.6c0.9-0.9,0.9-2.2,0-3.1l-6.6-6.6
				c-0.9-0.9-2.2-0.9-3.1,0c-0.9,0.9-0.9,2.2,0,3.1L217.2,279.1L217.2,279.1z"/>
			<path class="st3" d="M206.5,312.3c0-1.2-1-2.2-2.2-2.2H195c-1.2,0-2.2,1-2.2,2.2c0,1.2,1,2.2,2.2,2.2h9.3
				C205.5,314.5,206.5,313.5,206.5,312.3z"/>
			<path class="st3" d="M217.2,345.5l-6.6,6.6c-0.9,0.9-0.9,2.2,0,3.1c0.4,0.4,1,0.6,1.6,0.6c0.6,0,1.1-0.2,1.6-0.6l6.6-6.6
				c0.9-0.9,0.9-2.2,0-3.1C219.4,344.7,218.1,344.7,217.2,345.5L217.2,345.5z"/>
			<path class="st3" d="M289.8,345.5c-0.9-0.9-2.2-0.9-3.1,0c-0.9,0.9-0.9,2.2,0,3.1l6.6,6.6c0.4,0.4,1,0.6,1.6,0.6
				c0.6,0,1.1-0.2,1.6-0.6c0.9-0.9,0.9-2.2,0-3.1L289.8,345.5L289.8,345.5z"/>
			<path class="st3" d="M312,310.1h-9.3c-1.2,0-2.2,1-2.2,2.2c0,1.2,1,2.2,2.2,2.2h9.3c1.2,0,2.2-1,2.2-2.2
				C314.1,311.1,313.2,310.1,312,310.1z"/>
			<path class="st3" d="M288.3,279.7c0.6,0,1.1-0.2,1.6-0.6l6.6-6.6c0.9-0.9,0.9-2.2,0-3.1c-0.9-0.9-2.2-0.9-3.1,0l-6.6,6.6
				c-0.9,0.9-0.9,2.2,0,3.1C287.2,279.5,287.7,279.7,288.3,279.7L288.3,279.7z"/>
			<path class="st3" d="M268.6,288.8c-1-0.6-2.4-0.3-3,0.7c-0.6,1-0.3,2.4,0.7,3c5.7,3.6,9.7,9.5,10.9,16.2c0.2,1.1,1.1,1.8,2.1,1.8
				c0.1,0,0.3,0,0.4,0c1.2-0.2,2-1.3,1.8-2.5C280,300,275.4,293.1,268.6,288.8L268.6,288.8z"/>
		</g>
	</g>
</g>
<g>
	<ellipse class="st13" cx="517.5" cy="320.5" rx="107" ry="106.8"/>
	<g>
		<defs>
			<rect id="SVGID_00000004527345087648727770000007958117598847168391_" x="457.4" y="257.8" width="120.1" height="125.4"/>
		</defs>
		<clipPath id="SVGID_00000128463000252199879430000014372500842121850773_">
			<use xlink:href="#SVGID_00000004527345087648727770000007958117598847168391_"  style="overflow:visible;"/>
		</clipPath>
		<g style="clip-path:url(#SVGID_00000128463000252199879430000014372500842121850773_);">
			<path class="st3" d="M553.8,294.7v-32.6h4.3c1.2,0,2.2-1,2.2-2.2c0-1.2-1-2.2-2.2-2.2h-36.7c-1.2,0-2.2,1-2.2,2.2
				c0,1.2,1,2.2,2.2,2.2h4.3v33.5c-2.1,1-4.2,2.2-6.2,3.6c-1,0.7-1.2,2.1-0.5,3c0.4,0.6,1.1,0.9,1.7,0.9c0.4,0,0.9-0.1,1.3-0.4
				c2.1-1.5,4.3-2.7,6.6-3.7c0.6-0.2,1-0.7,1.2-1.3c0.1-0.2,0.1-0.5,0.1-0.7v-34.9h19.4v34.1c0,0,0,0.1,0,0.1c0,0.2,0,0.3,0.1,0.5
				c0,0.1,0,0.3,0.1,0.4c0.1,0.1,0.2,0.2,0.2,0.3c0.1,0.1,0.2,0.2,0.3,0.3c0.1,0.1,0.2,0.2,0.3,0.2c0.1,0.1,0.3,0.2,0.4,0.2
				c0,0,0,0,0.1,0c7.3,2.4,13.3,7.3,17.2,13.5h-44.6c-1.2,0-2.2,1-2.2,2.2c0,1.2,1,2.2,2.2,2.2h46.9c1.7,4,2.7,8.4,2.7,13
				c0,17.9-14.5,32.5-32.3,32.5c-1.2,0-2.4-0.1-3.8-0.3c-0.1-0.1-0.1-0.2-0.2-0.4l-24.1-45.4v-38.4h4.3c1.2,0,2.2-1,2.2-2.2
				s-1-2.2-2.2-2.2h-36.6c-1.2,0-2.2,1-2.2,2.2s1,2.2,2.2,2.2h4.3v38.4l-25.4,45c-2.7,4.7-2.7,10.4,0.1,15.1c2.7,4.7,7.6,7.5,13,7.5
				h51.1c5.1,0,9.6-2.4,12.5-6.6c2.2-3.2,3-7.1,2.4-10.8c0.8,0.1,1.6,0.1,2.4,0.1c20.2,0,36.7-16.5,36.7-36.8
				C577.6,313.7,568.1,300.1,553.8,294.7L553.8,294.7z M532.6,374.1c-2,3-5.3,4.7-8.9,4.7h-51.1c-3.9,0-7.4-2-9.3-5.4
				c-2-3.4-2-7.4-0.1-10.8l25.7-45.5c0,0,0-0.1,0-0.1c0.1-0.1,0.1-0.3,0.1-0.4c0-0.2,0.1-0.3,0.1-0.4c0,0,0-0.1,0-0.1v-39h19.4v39
				c0,0,0,0.1,0,0.1c0,0.2,0,0.3,0.1,0.4c0,0.1,0.1,0.3,0.1,0.4c0,0,0,0.1,0,0.1l9.9,18.6H487c-1.2,0-2.2,1-2.2,2.2
				c0,1.2,1,2.2,2.2,2.2h34l12.2,22.9c0.2,0.4,0.3,0.7,0.5,1.1C535,367.4,534.6,371.1,532.6,374.1L532.6,374.1z"/>
		</g>
	</g>
</g>
<g>
	<path class="st15" d="M235.5,106.8c0,59-47.9,106.8-107,106.8c-59.1,0-107-47.8-107-106.8C21.5,47.8,69.4,0,128.5,0
		C187.6,0,235.5,47.8,235.5,106.8z"/>
	<g>
		<defs>
			<rect id="SVGID_00000059993054541571286530000007072443562420942235_" x="65.5" y="43.9" width="126" height="125.8"/>
		</defs>
		<clipPath id="SVGID_00000047025135170335194680000002682887272473498773_">
			<use xlink:href="#SVGID_00000059993054541571286530000007072443562420942235_"  style="overflow:visible;"/>
		</clipPath>
		<g style="clip-path:url(#SVGID_00000047025135170335194680000002682887272473498773_);">
			<path class="st3" d="M191.3,61.1c-0.3-0.8-1.2-1.4-2.1-1.4h-13.6V46.2c0-0.9-0.5-1.7-1.4-2.1c-0.8-0.4-1.8-0.2-2.4,0.5l-9.5,9.5
				l-3.9,3.9l-4,4c-0.5,0.5-0.7,1.2-0.6,1.8l1.3,12.1l0.1,1.1l-2.8,2.8l-14.6,14.6l-13.3,13.3c-0.9,0.9-0.9,2.3,0,3.1
				c0.4,0.4,1,0.6,1.6,0.6c0.6,0,1.1-0.2,1.6-0.6l11.6-11.6c2,2.7,3.1,5.9,3.1,9.3c0,4.1-1.6,8-4.6,10.9c-2.9,2.9-6.8,4.5-11,4.5
				s-8-1.6-11-4.5c-2.9-2.9-4.6-6.8-4.6-10.9c0-4.1,1.6-8,4.6-10.9c3.9-3.9,9.6-5.4,14.9-4c1.2,0.3,2.4-0.4,2.7-1.6
				c0.3-1.2-0.4-2.4-1.6-2.7c-6.9-1.8-14.2,0.2-19.2,5.2c-3.8,3.8-5.9,8.8-5.9,14.1c0,5.3,2.1,10.3,5.9,14.1
				c3.8,3.8,8.8,5.8,14.1,5.8c5.3,0,10.4-2.1,14.1-5.8c3.8-3.8,5.9-8.8,5.9-14.1c0-4.6-1.5-8.9-4.4-12.4L154,84.5
				c5.9,6.6,9.1,15,9.1,23.9c0,9.7-3.8,18.8-10.6,25.6c-6.8,6.8-15.9,10.6-25.6,10.6c-9.7,0-18.8-3.8-25.6-10.6
				c-14.1-14.1-14.1-37.1,0-51.2c11.9-11.9,30.2-14,44.6-5.2c1,0.6,2.4,0.3,3.1-0.7c0.6-1,0.3-2.4-0.7-3.1
				c-16.1-9.9-36.7-7.5-50.1,5.9c-15.9,15.9-15.9,41.6,0,57.5c7.7,7.7,17.9,11.9,28.8,11.9s21.1-4.2,28.8-11.9
				c7.7-7.7,11.9-17.9,11.9-28.7c0-10.1-3.7-19.6-10.4-27.1l1.3-1.3l13.2,1.4c0,0,0.2,0,0.2,0c0.6,0,1.2-0.2,1.6-0.6l2-2
				c13.6,22.2,10.3,51.2-8.3,69.8c-22.2,22.2-58.3,22.2-80.5,0c-22.3-22.1-22.3-58.2-0.1-80.4c16.9-16.9,42.8-21.4,64.5-11.3
				c1.1,0.5,2.5,0,3-1.1c0.5-1.1,0-2.5-1.1-3c-23.4-10.9-51.3-6-69.5,12.2c-23.9,23.9-23.9,62.8,0,86.7c12,12,27.7,17.9,43.4,17.9
				c15.7,0,31.4-6,43.4-17.9c20.4-20.3,23.7-52.1,8.4-76.2l12.1-12.1C191.5,62.9,191.7,61.9,191.3,61.1L191.3,61.1z M174.3,73.7
				l-3.2,3.2l-8.5-0.9l4.6-4.6c0.9-0.9,0.9-2.3,0-3.1c-0.9-0.9-2.3-0.9-3.1,0l-4.6,4.6l-0.9-8.5l3.2-3.2l3.9-3.9l5.7-5.7v10.4
				c0,1.2,1,2.2,2.2,2.2h10.4L174.3,73.7L174.3,73.7z"/>
		</g>
	</g>
</g>
</svg>
