<svg width="62" height="65" viewBox="0 0 62 65" fill="none" xmlns="http://www.w3.org/2000/svg">
<g clip-path="url(#clip0_585_1270)">
<path d="M49.8378 19.4693V2.77131H52.0453C52.6524 2.77131 53.1491 2.27203 53.1491 1.66181C53.1491 1.05158 52.6524 0.552307 52.0453 0.552307H33.2817C32.6746 0.552307 32.1779 1.05158 32.1779 1.66181C32.1779 2.27203 32.6746 2.77131 33.2817 2.77131H35.4892V19.9242C34.3965 20.4235 33.3369 21.0337 32.3325 21.7549C31.8358 22.1099 31.7254 22.8089 32.0786 23.3082C32.2883 23.6077 32.6305 23.7742 32.9726 23.7742C33.1934 23.7742 33.4252 23.7076 33.6128 23.5634C34.6945 22.7867 35.8313 22.1543 37.0013 21.6772C37.2883 21.5552 37.509 21.3111 37.6083 21.0115C37.6415 20.9006 37.6746 20.7785 37.6746 20.6676V2.77131H47.6083V20.2349C47.6083 20.2349 47.6083 20.2681 47.6083 20.2792C47.6083 20.3569 47.6303 20.4346 47.6524 20.5122C47.6745 20.5788 47.6745 20.6454 47.7076 20.7009C47.7407 20.7674 47.7849 20.8118 47.818 20.8673C47.8621 20.9228 47.8952 20.9893 47.9504 21.0337C47.9946 21.0781 48.0608 21.1114 48.1049 21.1447C48.1712 21.189 48.2374 21.2334 48.3147 21.2667C48.3257 21.2667 48.3367 21.2889 48.3588 21.2889C52.1115 22.5315 55.1799 25.0279 57.1888 28.2122H34.3523C33.7452 28.2122 33.2486 28.7115 33.2486 29.3217C33.2486 29.9319 33.7452 30.4312 34.3523 30.4312H58.3477C59.2417 32.4838 59.7384 34.736 59.7384 37.0882C59.7384 46.2638 52.3102 53.7307 43.1823 53.7307C42.5862 53.7307 41.9461 53.6752 41.2507 53.5865C41.2176 53.531 41.1955 53.4644 41.1624 53.3979L28.8225 30.1427V10.4712H31.03C31.6371 10.4712 32.1338 9.97197 32.1338 9.36175C32.1338 8.75152 31.6371 8.25225 31.03 8.25225H12.3105C11.7035 8.25225 11.2068 8.75152 11.2068 9.36175C11.2068 9.97197 11.7035 10.4712 12.3105 10.4712H14.518V30.1538L1.5049 53.2314C0.136261 55.6612 0.147298 58.557 1.54905 60.9758C2.95081 63.3945 5.44527 64.8368 8.2267 64.8368H34.3854C36.9902 64.8368 39.3191 63.5942 40.7761 61.4417C41.8798 59.7997 42.3103 57.8248 42.0233 55.9164C42.4317 55.9497 42.8291 55.9719 43.2264 55.9719C53.5685 55.9719 61.99 47.5064 61.99 37.1104C61.99 29.2218 57.1446 22.2542 49.8489 19.4915L49.8378 19.4693ZM38.9439 60.188C37.9064 61.7302 36.2397 62.6178 34.3854 62.6178H8.2267C6.23996 62.6178 4.46293 61.586 3.45853 59.8663C2.45412 58.1465 2.44308 56.0718 3.42542 54.3409L16.582 30.997C16.582 30.997 16.582 30.9526 16.6041 30.9416C16.6372 30.875 16.6483 30.8084 16.6703 30.7307C16.6924 30.6531 16.7145 30.5865 16.7145 30.5088C16.7145 30.4867 16.7255 30.4645 16.7255 30.4534V10.4712H26.6592V30.4423C26.6592 30.4423 26.6592 30.4756 26.6592 30.4867C26.6592 30.5643 26.6813 30.6309 26.7034 30.7086C26.7254 30.7751 26.7365 30.8528 26.7696 30.9194C26.7696 30.9305 26.7696 30.9526 26.7806 30.9637L31.8358 40.4944H15.6107C15.0037 40.4944 14.507 40.9936 14.507 41.6039C14.507 42.2141 15.0037 42.7134 15.6107 42.7134H33.0168L39.2529 54.4519C39.3523 54.6405 39.4295 54.8291 39.5068 55.0288C40.1801 56.7264 39.9704 58.6569 38.9328 60.188H38.9439Z" fill="white"/>
</g>
<defs>
<clipPath id="clip0_585_1270">
<rect width="61.4895" height="64.2845" fill="white" transform="translate(0.489563 0.552307)"/>
</clipPath>
</defs>
</svg>
