<svg width="63" height="62" viewBox="0 0 63 62" fill="none" xmlns="http://www.w3.org/2000/svg">
<path d="M62.1419 59.1898L42.711 43.8643C42.711 43.8643 42.6394 43.8336 42.5985 43.803C42.5883 43.803 42.5781 43.7826 42.5679 43.7826L42.0974 30.1326C43.7337 29.8772 44.9916 28.4673 44.9916 26.761C44.9916 25.0548 43.6928 23.6142 42.0258 23.3894V17.627C44.2246 15.1851 46.229 15.9616 49.2971 17.4431C50.8515 18.1992 52.6208 19.0472 54.4411 19.0472C55.9854 19.0472 57.5807 18.4341 59.1352 16.636C59.2886 16.452 59.3806 16.2273 59.3806 15.9821L59.534 5.76505C59.534 5.33594 59.2784 4.94769 58.8795 4.79444C58.4807 4.64118 58.0205 4.75357 57.7444 5.08051C55.4433 7.73693 53.3673 6.92979 50.1868 5.38702C47.7835 4.22228 44.8893 2.83277 42.0258 4.61053V1.75998C42.0258 1.19805 41.5656 0.738281 41.0032 0.738281C40.4407 0.738281 39.9805 1.19805 39.9805 1.75998V6.78675C39.9805 6.86849 39.9703 6.94001 39.9805 7.02174V23.3587H34.8467C33.691 22.0305 30.081 17.9948 26.9925 15.6347C29.764 15.0421 31.8502 12.5798 31.8502 9.62708C31.8502 6.24525 29.0992 3.48666 25.7142 3.48666C22.3291 3.48666 19.5781 6.24525 19.5781 9.62708C19.5781 11.2925 20.2429 12.7944 21.3269 13.908C19.9872 14.2043 18.76 14.9604 17.9112 16.1149C17.9009 16.1353 17.8805 16.1558 17.8703 16.1864C17.7578 16.2988 17.6657 16.4214 17.6248 16.5849V16.6155C17.3282 17.0957 17.1033 17.5657 16.9908 17.9846L13.0841 30.1939L13.0432 30.3165C12.5421 31.7469 12.3683 33.0751 12.5319 34.2501L12.9819 43.3943L7.8685 56.6866V56.7173L0.863172 59.0161C0.331381 59.1898 0.0348053 59.7722 0.20866 60.3035C0.351835 60.7326 0.750678 61.0084 1.1802 61.0084C1.28247 61.0084 1.39496 60.988 1.49723 60.9573L8.95253 58.5053C8.95253 58.5053 8.97299 58.4848 8.99344 58.4848C9.09571 58.444 9.17752 58.3929 9.25933 58.3316C9.29001 58.3111 9.32069 58.2805 9.34115 58.2498C9.40251 58.1885 9.45364 58.1272 9.49455 58.0557C9.515 58.0251 9.53546 57.9944 9.55591 57.9535C9.55591 57.9331 9.57636 57.9229 9.58659 57.9025L9.77067 57.412L14.9556 43.9154C15.0068 43.7826 15.0272 43.6395 15.0272 43.4965L14.7511 37.7852C15.242 38.1019 15.784 38.3573 16.4078 38.5208C17.2055 38.7251 18.085 38.9295 18.985 39.1236V43.7621C18.985 44.2321 18.8623 44.6919 18.5759 45.1721L14.1682 54.2141C14.1682 54.2141 14.1682 54.2243 14.1682 54.2346C14.1375 54.3061 14.1273 54.3878 14.1068 54.4695C14.1068 54.5206 14.0761 54.5717 14.0761 54.6228C14.0761 54.6739 14.0966 54.725 14.0966 54.7761C14.0966 54.8578 14.1068 54.9395 14.1375 55.011C14.1375 55.011 14.1375 55.0213 14.1375 55.0315C14.1784 55.1439 14.2398 55.2358 14.3113 55.3176C14.3318 55.338 14.3523 55.3482 14.3625 55.3686C14.4341 55.4402 14.5057 55.5015 14.5977 55.5423C14.6182 55.5423 14.6284 55.5628 14.6386 55.573C14.6591 55.573 14.6693 55.573 14.6897 55.5832C14.8125 55.6343 14.9454 55.6752 15.0784 55.6752C15.1909 55.6752 15.3033 55.6547 15.4056 55.6139C15.4158 55.6139 15.4363 55.6139 15.4465 55.6139L27.2891 51.0571C27.2891 51.0571 27.2993 51.0469 27.3095 51.0469C27.3811 51.0162 27.4323 50.9753 27.4936 50.9242C27.5448 50.8936 27.5959 50.8629 27.6368 50.8221C27.6777 50.7812 27.7084 50.7199 27.7493 50.6688C27.7902 50.6177 27.8311 50.5667 27.8618 50.5053C27.8822 50.4543 27.8822 50.393 27.9027 50.3419C27.9232 50.2704 27.9436 50.1988 27.9436 50.1171V50.0967L27.7595 39.5629C27.7595 39.0725 27.3914 38.6536 26.9005 38.5719C26.8391 38.5719 20.7644 37.5502 16.8987 36.5591C15.9579 36.3241 15.2829 35.8235 14.884 35.0879C14.6897 34.7201 14.5875 34.2807 14.5466 33.8107L14.5159 33.2488C14.5159 33.2488 14.5159 33.2182 14.5057 33.2079C14.5261 32.5336 14.6795 31.7878 14.9659 30.9806C14.9659 30.9806 14.9659 30.9704 14.9659 30.9602C14.9659 30.9602 14.9659 30.95 14.9659 30.9398L15.0068 30.8172L18.9236 18.567C19.0054 18.2502 19.1588 17.9233 19.394 17.5657L19.4656 17.4431C19.4656 17.4431 19.5065 17.3716 19.5372 17.3307C20.4576 16.1047 22.0121 15.5632 23.4643 15.9208C23.495 15.9208 23.5257 15.9412 23.5563 15.9412C26.113 16.7892 31.6559 22.7866 33.5888 25.0446C33.7831 25.2693 34.0694 25.4021 34.366 25.4021H41.5554C42.3122 25.4021 42.9258 26.0152 42.9258 26.7814C42.9258 27.5477 42.3122 28.1607 41.5554 28.1607H32.3411L26.7266 23.3485L24.2313 21.2132C23.8018 20.8454 23.1575 20.8964 22.7893 21.3256C22.4212 21.7547 22.4723 22.3983 22.9018 22.7662L24.8756 24.452L22.8098 30.6537C22.6462 31.1339 22.8711 31.6652 23.3211 31.89L30.5617 35.4966C31.3082 35.8644 31.748 36.6409 31.6866 37.4684L30.9094 48.1146C30.9094 48.1146 30.9094 48.1248 30.9094 48.135C30.9094 48.2065 30.9298 48.278 30.94 48.3496C30.94 48.4109 30.94 48.4722 30.9707 48.5335C30.9707 48.5335 30.9707 48.5437 30.9707 48.5539C31.0116 48.6663 31.073 48.7582 31.1446 48.84C31.1548 48.8604 31.1753 48.8706 31.1957 48.8808C31.2673 48.9524 31.3389 49.0137 31.4207 49.0545C31.4514 49.075 31.4821 49.0852 31.523 49.1056C31.6048 49.1465 31.6968 49.1669 31.7889 49.1771C31.8093 49.1771 31.8298 49.1976 31.8502 49.1976C31.8707 49.1976 31.9014 49.1976 31.9218 49.1976C31.9218 49.1976 31.9423 49.1976 31.9525 49.1976C32.065 49.1976 32.1775 49.1771 32.29 49.1363L40.2975 46.0609L36.3398 54.7658L32.0241 53.9076C31.6457 53.8259 31.2673 53.9689 31.0219 54.2754L26.9312 59.3839C26.5835 59.8233 26.655 60.4669 27.0948 60.8245C27.2789 60.9778 27.5141 61.0493 27.7288 61.0493C28.0254 61.0493 28.322 60.9165 28.5265 60.6611L32.2286 56.0327L36.7284 56.9318C37.1988 57.034 37.6692 56.7888 37.8636 56.3495L42.4349 46.2959L60.8431 60.8143C61.0271 60.9574 61.2521 61.0289 61.4771 61.0289C61.7839 61.0289 62.0805 60.896 62.285 60.6406C62.6327 60.2013 62.5612 59.5576 62.1112 59.2L62.1419 59.1898ZM25.888 49.4019L17.1339 52.7633L20.3656 46.1325C20.7951 45.4173 21.0201 44.5897 21.0201 43.7519V39.5425C22.9427 39.9307 24.7222 40.2475 25.7346 40.4212L25.888 49.4019ZM25.7142 5.53006C27.9743 5.53006 29.8049 7.36912 29.8049 9.62708C29.8049 11.885 27.9743 13.7241 25.7142 13.7241C23.4541 13.7241 21.6235 11.885 21.6235 9.62708C21.6235 7.36912 23.4541 5.53006 25.7142 5.53006ZM49.2971 7.2363C51.7003 8.40104 54.5945 9.80077 57.4682 8.03323L57.3557 15.5836C55.1979 17.862 53.2037 17.0651 50.197 15.6143C47.7937 14.4495 44.8996 13.0702 42.0361 14.9399V7.24652C44.2144 4.95791 46.2495 5.75483 49.3073 7.2363H49.2971ZM31.4821 33.6473L25.0392 30.4391L26.563 25.8721L31.3082 29.9385C31.4923 30.102 31.7275 30.1837 31.9729 30.1837H40.0419L40.5123 43.7723L33.0774 46.6331L33.7319 37.591C33.8547 35.9359 32.9649 34.3829 31.4718 33.6371L31.4821 33.6473Z" fill="white"/>
</svg>
