<svg width="54" height="66" viewBox="0 0 54 66" fill="none" xmlns="http://www.w3.org/2000/svg">
<g clip-path="url(#clip0_585_1317)">
<path d="M47.9684 56.0611H35.41C35.274 55.0079 34.968 53.9886 34.4806 53.0373C40.6465 49.9908 44.5681 43.7619 44.5681 36.8082C44.5681 31.2702 42.0406 26.0832 37.7336 22.6517L44.6135 15.7772C45.0555 15.3355 45.0555 14.6221 44.6135 14.1804L43.208 12.776L49.0225 6.96619C49.2378 6.75101 49.3512 6.46788 49.3512 6.16209C49.3512 5.85631 49.2265 5.57318 49.0225 5.358L44.6135 0.952479C44.1714 0.510795 43.4574 0.510795 43.0153 0.952479L37.2008 6.76233L35.7954 5.358C35.3534 4.91632 34.6393 4.91632 34.1973 5.358L16.5498 22.7083L14.9177 24.3391C14.4757 24.7808 14.4757 25.4943 14.9177 25.936L16.3231 27.3403L13.8183 29.8432C13.6029 30.0584 13.4896 30.3415 13.4896 30.6473C13.4896 30.9531 13.6143 31.2362 13.8183 31.4514L18.2273 35.8569C18.4426 36.0721 18.726 36.1853 19.032 36.1853C19.3381 36.1853 19.6214 36.0608 19.8368 35.8569L22.3416 33.354L23.7471 34.7584C23.9738 34.9849 24.2571 35.0868 24.5518 35.0868C24.8465 35.0868 25.1185 34.9849 25.3452 34.7697L36.1241 24.2712C40.0117 27.2724 42.3239 31.8704 42.3239 36.8082C42.3239 43.0031 38.765 48.5412 33.1885 51.146C31.477 49.2433 29.0288 48.1335 26.456 48.1335C23.8831 48.1335 21.4349 49.2433 19.7234 51.146C17.2072 49.9682 15.0424 48.1448 13.4556 45.8684H16.2551C16.8785 45.8684 17.3886 45.3588 17.3886 44.7359C17.3886 44.113 16.8785 43.6034 16.2551 43.6034H7.16506C6.54167 43.6034 6.03163 44.113 6.03163 44.7359C6.03163 45.3588 6.54167 45.8684 7.16506 45.8684H10.758C12.5488 48.9602 15.2124 51.4518 18.3973 53.0373C17.8986 53.9886 17.5699 55.0079 17.4339 56.0611H6.03163C2.90338 56.0611 0.364502 58.598 0.364502 61.7238V63.9888C0.364502 64.6117 0.874544 65.1214 1.49793 65.1214H52.5021C53.1255 65.1214 53.6355 64.6117 53.6355 63.9888V61.7238C53.6355 58.598 51.0967 56.0611 47.9684 56.0611ZM43.8087 3.36476L46.6196 6.16209L41.6099 11.1679L38.8103 8.35919L43.8201 3.35343L43.8087 3.36476ZM19.0094 33.4673L16.2098 30.6586L17.9099 28.9598L20.7095 31.7572L19.0094 33.4559V33.4673ZM24.5291 32.3801L23.1124 30.9644L18.7033 26.5589L17.2979 25.1545L18.1253 24.3278L34.9793 7.75896L36.3848 9.16329L40.7938 13.5688L42.1993 14.9731L35.206 21.9608L24.5291 32.3687V32.3801ZM51.3573 62.8676H2.63135V61.7351C2.63135 59.8664 4.16148 58.3375 6.03163 58.3375H18.4993C19.1227 58.3375 19.6327 57.8279 19.6327 57.205C19.6327 55.7667 20.0861 54.385 20.9362 53.2185C22.217 51.4631 24.2685 50.4099 26.4333 50.4099C28.5981 50.4099 30.6496 51.4631 31.9304 53.2185C32.5538 54.0792 32.9618 55.0532 33.1319 56.0725H27.5667C26.9433 56.0725 26.4333 56.5821 26.4333 57.205C26.4333 57.8279 26.9433 58.3375 27.5667 58.3375H47.9684C49.8386 58.3375 51.3687 59.8664 51.3687 61.7351V62.8676H51.3573Z" fill="white"/>
</g>
<defs>
<clipPath id="clip0_585_1317">
<rect width="53.271" height="64.486" fill="white" transform="translate(0.364502 0.635498)"/>
</clipPath>
</defs>
</svg>
