<svg width="52" height="71" viewBox="0 0 52 71" fill="none" xmlns="http://www.w3.org/2000/svg">
<path d="M29.2841 59.1045C18.2436 59.1045 7.7359 52.658 3.15648 41.9402C-2.94185 27.6385 3.79125 11.0715 18.1756 4.99689C18.7424 4.74895 19.4111 5.01943 19.6605 5.5942C19.9099 6.16898 19.6379 6.83391 19.0598 7.07058C5.83159 12.6605 -0.368762 27.909 5.25349 41.0611C7.97394 47.44 13.0294 52.3763 19.4792 54.9684C25.9402 57.5605 33.0247 57.5042 39.4291 54.7994C39.9959 54.5627 40.676 54.8219 40.914 55.3967C41.1521 55.9714 40.8913 56.6364 40.3132 56.8731C36.7087 58.3945 32.968 59.1158 29.2841 59.1158V59.1045Z" fill="white"/>
<path d="M29.2501 70.3746C28.6267 70.3746 28.1166 69.8674 28.1166 69.2475V57.9775C28.1166 57.3576 28.6267 56.8505 29.2501 56.8505C29.8736 56.8505 30.3836 57.3576 30.3836 57.9775V69.2475C30.3836 69.8674 29.8736 70.3746 29.2501 70.3746Z" fill="white"/>
<path d="M29.2841 53.4694C20.454 53.4694 12.0433 48.3077 8.38203 39.7312C6.01297 34.1863 5.96763 28.0667 8.23467 22.4767C10.5017 16.898 14.8204 12.5252 20.3973 10.1698C31.9026 5.31238 45.2441 10.6657 50.1295 22.1161C55.015 33.5552 49.6195 46.8201 38.1142 51.6775C35.2351 52.8946 32.2426 53.4694 29.2841 53.4694ZM29.2274 10.6431C26.575 10.6431 23.8772 11.1615 21.2815 12.2547C16.26 14.3735 12.3833 18.3068 10.3317 23.3332C8.29135 28.3597 8.33669 33.8708 10.4677 38.8634C14.8658 49.1643 26.8697 53.9878 37.2188 49.6151C47.5791 45.2423 52.4192 33.3073 48.0325 23.0177C44.734 15.2977 37.1734 10.6544 29.2274 10.6544V10.6431Z" fill="white"/>
<path d="M18.6178 7.16067C18.1757 7.16067 17.7563 6.90146 17.5749 6.4732L15.8066 2.32581C15.5573 1.75104 15.8293 1.0861 16.4074 0.849429C16.9742 0.601487 17.6429 0.871969 17.8923 1.44674L19.6606 5.59413C19.91 6.16891 19.6379 6.83384 19.0598 7.07051C18.9125 7.12686 18.7651 7.16067 18.6178 7.16067Z" fill="white"/>
<path d="M41.6508 61.1106C41.2087 61.1106 40.7893 60.8514 40.608 60.4231L38.8397 56.2758C38.5903 55.701 38.8623 55.0361 39.4404 54.7994C40.0072 54.5627 40.6873 54.8219 40.9254 55.3967L42.6936 59.5441C42.943 60.1189 42.671 60.7838 42.0929 61.0205C41.9455 61.0768 41.7982 61.1106 41.6508 61.1106Z" fill="white"/>
<path d="M32.866 49.1755C32.7754 49.1755 32.6847 49.1756 32.594 49.1417L29.1821 48.3078C27.5272 47.902 26.1443 46.7299 25.4868 45.1747L23.9112 41.4781L21.9729 41.1174C20.6694 40.8695 19.5925 40.0017 19.0711 38.7958L18.9918 38.6155L14.0383 37.3983C13.6869 37.3082 13.4035 37.0715 13.2675 36.7447L11.9413 33.6341L9.85559 34.5132C9.2775 34.7611 8.62006 34.4906 8.37068 33.9159C8.12131 33.3411 8.39335 32.6762 8.97145 32.4395L12.1 31.1209C12.6781 30.8842 13.3355 31.1434 13.5849 31.7182L15.1378 35.3472L20.0913 36.5643C20.4427 36.6545 20.726 36.8912 20.8621 37.218L21.1568 37.9167C21.3721 38.4239 21.8369 38.7958 22.3923 38.8972L24.9314 39.3706C25.3055 39.4382 25.6115 39.6861 25.7702 40.0355L27.5838 44.2956C27.9692 45.2085 28.774 45.8847 29.7375 46.1214L30.9504 46.4144L30.5083 45.3775C30.395 45.1071 30.3836 44.7915 30.5083 44.5097L31.3018 42.5487C31.4491 42.1881 31.4491 41.7824 31.3018 41.4217L28.7967 35.5613C28.5133 34.9076 28.0032 34.4005 27.3345 34.13C26.6203 33.8482 25.8949 33.8482 25.2374 34.13L22.517 35.2795C22.245 35.3922 21.9276 35.4035 21.6442 35.2795L18.6744 34.0849C18.391 33.9722 18.1756 33.7581 18.0509 33.4763L16.7247 30.3658C16.4753 29.791 16.7474 29.1261 17.3255 28.8894L20.4653 27.5595C21.5195 27.1087 22.347 26.286 22.7777 25.2266L25.6569 18.1265L24.2853 14.9258C24.0359 14.351 24.308 13.6861 24.8861 13.4494C25.4642 13.2015 26.1216 13.4719 26.371 14.0467L27.9239 17.6757C28.0372 17.9462 28.0486 18.2617 27.9239 18.5435L24.8634 26.0719C24.2059 27.6948 22.9591 28.957 21.3381 29.6332L19.2411 30.5236L19.9439 32.169L22.0409 33.0143L24.3306 32.045C25.5435 31.5266 26.8924 31.5153 28.1166 32.0112C29.3861 32.5184 30.3496 33.4538 30.8597 34.671L33.3648 40.5314C33.7502 41.4443 33.7615 42.4586 33.3875 43.3827L32.764 44.9042L33.9089 47.5865C34.0789 47.9809 34.0109 48.4317 33.7275 48.7586C33.5121 49.0178 33.1948 49.153 32.866 49.153V49.1755Z" fill="white"/>
<path d="M47.4658 43.0108C47.0237 43.0108 46.6043 42.7516 46.4229 42.3234L45.3121 39.7087L42.3423 38.886C42.0135 38.7958 41.7415 38.5591 41.6055 38.2436L38.4656 30.8955L34.555 29.3289C33.8409 29.0472 33.2854 28.5062 32.9907 27.7962C32.696 27.0975 32.6847 26.3198 32.9681 25.6211L34.5096 21.8343C34.9517 20.7412 35.8019 19.8846 36.9014 19.4226L40.8574 17.7546C41.4241 17.5066 42.0929 17.7771 42.3423 18.3519C42.5916 18.9267 42.3196 19.5916 41.7415 19.8283L37.7855 21.4962C37.2528 21.7216 36.8334 22.1499 36.6067 22.6796L35.0651 26.4663C35.0084 26.6129 35.0084 26.7706 35.0651 26.9172C35.1217 27.0637 35.2464 27.1764 35.3938 27.2327L39.7352 28.9796C40.0185 29.0923 40.2339 29.3064 40.3586 29.5882L43.4644 36.8686L46.4343 37.6913C46.763 37.7815 47.035 38.0182 47.1711 38.3337L48.4973 41.4443C48.7466 42.0191 48.4746 42.684 47.8965 42.9207C47.7492 42.977 47.6018 43.0108 47.4544 43.0108H47.4658Z" fill="white"/>
<path d="M43.9859 70.6338H14.5144C13.8909 70.6338 13.3809 70.1266 13.3809 69.5068C13.3809 68.8869 13.8909 68.3798 14.5144 68.3798H43.9859C44.6093 68.3798 45.1194 68.8869 45.1194 69.5068C45.1194 70.1266 44.6093 70.6338 43.9859 70.6338Z" fill="white"/>
</svg>
