<svg width="65" height="60" viewBox="0 0 65 60" fill="none" xmlns="http://www.w3.org/2000/svg">
<g clip-path="url(#clip0_585_1274)">
<path d="M0.092041 15.6616C0.102727 15.7257 0.124098 15.779 0.145469 15.8431C0.16684 15.9178 0.198897 15.9818 0.241639 16.0458C0.252325 16.0672 0.252325 16.0885 0.26301 16.0992L16.3341 38.4031C15.9601 39.8011 15.7571 41.2418 15.7571 42.6932C15.7571 51.8175 23.1836 59.2344 32.3198 59.2344C41.456 59.2344 48.8824 51.8175 48.8824 42.6932C48.8824 41.2311 48.6794 39.7798 48.2947 38.3711L64.1735 16.0992C64.1735 16.0992 64.1842 16.0672 64.1949 16.0458C64.2376 15.9818 64.259 15.9071 64.2911 15.8431C64.3124 15.779 64.3445 15.7257 64.3552 15.6616C64.3659 15.5976 64.3552 15.5229 64.3552 15.4589C64.3552 15.3949 64.3552 15.3202 64.3445 15.2561C64.3338 15.1921 64.3018 15.1387 64.2804 15.0747C64.2483 15 64.227 14.936 64.1842 14.8719C64.1735 14.8613 64.1735 14.8399 64.1628 14.8186L53.4879 0.955993C53.4879 0.955993 53.4238 0.902634 53.3918 0.881291C53.349 0.838604 53.317 0.785245 53.2635 0.742558C53.2315 0.721214 53.1994 0.721214 53.1781 0.699871C53.1246 0.667856 53.0712 0.646512 53.0178 0.625169C52.9216 0.593154 52.8361 0.57181 52.7399 0.561138C52.7079 0.561138 52.6758 0.539795 52.6438 0.539795H12.0385C12.0385 0.539795 11.9744 0.561138 11.9424 0.561138C11.8462 0.561138 11.7607 0.593154 11.6752 0.625169C11.6111 0.646512 11.5577 0.667856 11.5043 0.699871C11.4722 0.721214 11.4401 0.721214 11.4081 0.742558C11.3547 0.774573 11.3333 0.827932 11.2905 0.870619C11.2585 0.902634 11.2157 0.913306 11.1944 0.945321L0.305753 14.8186C0.305753 14.8186 0.284382 14.8613 0.273696 14.8719C0.230954 14.936 0.209583 15 0.177526 15.064C0.156155 15.1281 0.124098 15.1814 0.113412 15.2561C0.102727 15.3202 0.102727 15.3842 0.102727 15.4482C0.102727 15.5229 0.102727 15.5869 0.102727 15.6616H0.092041ZM11.9958 3.37848L28.7081 26.5682C23.6003 27.71 19.3475 31.189 17.221 35.9593L2.48561 15.5122L11.9958 3.37848ZM61.9937 15.5016L47.4399 35.9166C45.3135 31.1677 41.0606 27.6994 35.9636 26.5682L52.6651 3.38915L61.9937 15.5016ZM42.0757 14.4344C42.0757 14.4344 42.0009 14.4131 41.9582 14.4131H28.0669C27.4792 14.4131 26.9984 14.8933 26.9984 15.4802C26.9984 16.0672 27.4792 16.5474 28.0669 16.5474H40.5584L33.5914 26.2053C32.7365 26.1306 31.9565 26.1306 31.0909 26.2053L14.1222 2.67414H50.5601L42.0757 14.4344ZM32.3412 57.1C24.3911 57.1 17.9156 50.6329 17.9156 42.6932C17.9156 41.2738 18.1293 39.8652 18.5461 38.4992C20.213 33.0032 24.9895 29.0333 30.6956 28.3824C31.8924 28.2436 32.7793 28.2436 33.976 28.3824C39.6715 29.0333 44.4372 32.9926 46.1149 38.4672C46.5316 39.8331 46.7453 41.2631 46.7453 42.6932C46.7453 50.6329 40.2699 57.1 32.3198 57.1H32.3412Z" fill="white"/>
<path d="M39.5967 38.5205L36.2734 38.0082C36.1559 37.9869 36.049 37.9122 35.9956 37.8055L34.4783 34.8067C34.0508 33.9636 33.1853 33.4301 32.2343 33.4301C31.2833 33.4301 30.4284 33.953 29.9903 34.8067L28.473 37.8055C28.4195 37.9122 28.3127 37.9869 28.1951 38.0082L24.8719 38.5205C23.9316 38.6699 23.1622 39.3209 22.8737 40.228C22.5852 41.135 22.8203 42.1062 23.4935 42.7785L25.8764 45.1476C25.9618 45.233 26.0046 45.3504 25.9832 45.4678L25.4489 48.7867C25.2993 49.7258 25.684 50.6542 26.4534 51.2198C26.8915 51.54 27.4044 51.7001 27.928 51.7001C28.3234 51.7001 28.708 51.604 29.0714 51.4226L32.0633 49.8859C32.1702 49.8325 32.2984 49.8325 32.4053 49.8859L35.3972 51.4226C36.2414 51.8601 37.2458 51.7748 38.0152 51.2198C38.7846 50.6649 39.1692 49.7258 39.0196 48.7867L38.4854 45.4678C38.464 45.3504 38.5067 45.233 38.5922 45.1476L40.9751 42.7785C41.6483 42.1062 41.8834 41.135 41.5949 40.228C41.2957 39.3209 40.537 38.6699 39.5967 38.5205ZM39.4684 41.2631L37.0855 43.6322C36.5085 44.1978 36.2521 45.0089 36.3803 45.8093L36.9146 49.1282C36.9466 49.3203 36.8398 49.4377 36.765 49.491C36.7009 49.5444 36.5619 49.6084 36.3803 49.523L33.3883 47.9863C32.6724 47.6128 31.8175 47.6128 31.1016 47.9863L28.1096 49.523C27.928 49.6191 27.7891 49.5444 27.725 49.491C27.6502 49.4377 27.5433 49.3309 27.5754 49.1282L28.1096 45.8093C28.2379 45.0196 27.9707 44.1978 27.4044 43.6322L25.0215 41.2631C24.8826 41.1244 24.904 40.9643 24.9253 40.8789C24.9467 40.7936 25.0215 40.6548 25.2245 40.6228L28.5478 40.1106C29.3385 39.9825 30.0331 39.4809 30.3964 38.7659L31.9137 35.7672C31.9992 35.5857 32.1595 35.5644 32.245 35.5644C32.3305 35.5644 32.4907 35.5964 32.5762 35.7672L34.0936 38.7659C34.4569 39.4809 35.1515 39.9825 35.9422 40.1106L39.2654 40.6228C39.4684 40.6548 39.5325 40.7936 39.5646 40.8789C39.5967 40.9643 39.618 41.1137 39.4684 41.2631Z" fill="white"/>
</g>
<defs>
<clipPath id="clip0_585_1274">
<rect width="64.2845" height="58.6946" fill="white" transform="translate(0.092041 0.539795)"/>
</clipPath>
</defs>
</svg>
