<svg width="61" height="70" viewBox="0 0 61 70" fill="none" xmlns="http://www.w3.org/2000/svg">
<g clip-path="url(#clip0_585_1288)">
<path d="M30.4382 11.5326C30.3397 11.5326 30.2301 11.5326 30.1206 11.5326C19.2987 11.5326 10.6785 20.0204 10.4375 31.0006C10.317 36.4688 12.3982 40.4876 15.5746 44.8468C16.2975 45.846 16.9438 46.5926 17.5243 47.2514C18.9482 48.8875 19.9012 49.9746 20.5912 53.4773C20.6898 54.0043 21.1498 54.3557 21.6647 54.3557C21.7194 54.3557 21.7851 54.3557 21.8399 54.3337C21.8728 54.3337 21.9056 54.3557 21.9385 54.3557H38.0946V56.5188H21.6647C21.0622 56.5188 20.5693 57.0129 20.5693 57.6168C20.5693 58.2207 21.0622 58.7149 21.6647 58.7149H38.0946V60.9438H21.6647C21.0622 60.9438 20.5693 61.438 20.5693 62.0419C20.5693 62.6458 21.0622 63.1399 21.6647 63.1399H36.3202L34.1295 67.532H26.7251L25.9364 65.9399C25.6626 65.4018 25.0054 65.1822 24.4687 65.4458C23.932 65.7203 23.7129 66.3791 23.9758 66.9171L25.0711 69.1132C25.2573 69.4865 25.6407 69.7171 26.046 69.7171H34.8086C35.2248 69.7171 35.5972 69.4865 35.7835 69.1132L38.7627 63.1289H39.179C39.7814 63.1289 40.2743 62.6348 40.2743 62.0309V57.6388C40.2743 57.6388 40.2743 57.6278 40.2743 57.6168C40.2743 57.6058 40.2743 57.6058 40.2743 57.5949V53.3565C40.9644 49.9416 41.9063 48.8546 43.3193 47.2295C43.8889 46.5707 44.5461 45.824 45.269 44.8248C48.4345 40.4656 50.5266 36.4469 50.4061 30.9787C50.1542 19.9106 41.3477 11.335 30.4382 11.5106V11.5326ZM43.4946 43.5511C42.8264 44.4734 42.2349 45.1432 41.6654 45.802C40.2414 47.4381 39.1023 48.7557 38.2918 52.1596H22.53C21.7304 48.7557 20.5803 47.4381 19.1563 45.802C18.5868 45.1432 17.9953 44.4625 17.3271 43.5511C14.3369 39.4335 12.5077 35.9088 12.6172 31.0446C12.8363 21.2831 20.4926 13.7287 30.1206 13.7287C30.2082 13.7287 30.3068 13.7287 30.3944 13.7287C30.3944 13.7287 30.3944 13.7287 30.4054 13.7287C30.4054 13.7287 30.4054 13.7287 30.4163 13.7287C40.1429 13.542 47.9745 21.1843 48.1935 31.0446C48.3031 35.9088 46.4739 39.4335 43.4836 43.5511H43.4946Z" fill="white"/>
<path d="M30.4163 7.41498C31.0188 7.41498 31.5117 6.92087 31.5117 6.31695V1.65033C31.5117 1.04642 31.0188 0.552307 30.4163 0.552307C29.8139 0.552307 29.321 1.04642 29.321 1.65033V6.31695C29.321 6.92087 29.8139 7.41498 30.4163 7.41498Z" fill="white"/>
<path d="M19.9778 8.62282C20.1531 9.05105 20.5584 9.30359 20.9855 9.30359C21.1279 9.30359 21.2703 9.28163 21.4018 9.21575C21.9604 8.98517 22.2233 8.33733 21.9933 7.77734L21.1498 5.74599C20.9198 5.18599 20.2736 4.92247 19.715 5.15305C19.1563 5.38364 18.8935 6.03147 19.1235 6.59147L19.9669 8.62282H19.9778Z" fill="white"/>
<path d="M5.20184 21.7442L7.2282 22.5897C7.35964 22.6446 7.50203 22.6775 7.64443 22.6775C8.0716 22.6775 8.47688 22.425 8.65213 21.9968C8.88215 21.4368 8.61927 20.7889 8.06065 20.5583L6.03429 19.7129C5.47567 19.4823 4.82943 19.7458 4.59941 20.3058C4.36939 20.8658 4.63227 21.5136 5.19089 21.7442H5.20184Z" fill="white"/>
<path d="M8.66308 40.0593C8.43307 39.4993 7.78682 39.2358 7.2282 39.4664L5.20184 40.3119C4.64323 40.5425 4.38035 41.1903 4.61037 41.7503C4.78562 42.1676 5.19089 42.4311 5.61807 42.4311C5.76046 42.4311 5.90285 42.4091 6.03429 42.3432L8.06065 41.4978C8.61927 41.2672 8.88215 40.6193 8.65213 40.0593H8.66308Z" fill="white"/>
<path d="M55.6308 40.3009L53.6044 39.4554C53.0458 39.2248 52.3996 39.4884 52.1696 40.0484C51.9396 40.6083 52.2024 41.2562 52.761 41.4868L54.7874 42.3323C54.9188 42.3872 55.0612 42.4201 55.2036 42.4201C55.6308 42.4201 56.0361 42.1675 56.2113 41.7393C56.4414 41.1793 56.1785 40.5315 55.6199 40.3009H55.6308Z" fill="white"/>
<path d="M52.1696 21.9858C52.3448 22.414 52.7501 22.6666 53.1773 22.6666C53.3197 22.6666 53.4621 22.6446 53.5935 22.5787L55.6199 21.7332C56.1785 21.5026 56.4414 20.8548 56.2113 20.2948C55.9813 19.7348 55.3351 19.4713 54.7765 19.7019L52.7501 20.5474C52.1915 20.7779 51.9286 21.4258 52.1586 21.9858H52.1696Z" fill="white"/>
<path d="M39.4309 9.21575C39.5623 9.27065 39.7047 9.30359 39.8471 9.30359C40.2743 9.30359 40.6796 9.05105 40.8548 8.62282L41.6982 6.59147C41.9283 6.03147 41.6654 5.38364 41.1068 5.15305C40.5481 4.92247 39.9129 5.18599 39.6719 5.74599L38.8285 7.77734C38.5985 8.33733 38.8613 8.98517 39.42 9.21575H39.4309Z" fill="white"/>
<path d="M12.212 14.3325C12.431 14.5521 12.7049 14.651 12.9897 14.651C13.2744 14.651 13.5483 14.5412 13.7673 14.3325C14.1945 13.9043 14.1945 13.2125 13.7673 12.7843L10.4813 9.47925C10.0542 9.05102 9.36411 9.05102 8.93693 9.47925C8.50975 9.90748 8.50975 10.5992 8.93693 11.0275L12.2229 14.3325H12.212Z" fill="white"/>
<path d="M6.86675 31.0226C6.86675 30.4187 6.37385 29.9246 5.77142 29.9246H1.11626C0.513833 29.9246 0.0209351 30.4187 0.0209351 31.0226C0.0209351 31.6265 0.513833 32.1206 1.11626 32.1206H5.77142C6.37385 32.1206 6.86675 31.6265 6.86675 31.0226Z" fill="white"/>
<path d="M12.212 47.7126L8.92597 51.0067C8.4988 51.4349 8.4988 52.1267 8.92597 52.5549C9.14504 52.7745 9.41887 52.8733 9.70366 52.8733C9.98844 52.8733 10.2623 52.7635 10.4813 52.5549L13.7673 49.2608C14.1945 48.8326 14.1945 48.1408 13.7673 47.7126C13.3402 47.2844 12.6501 47.2844 12.2229 47.7126H12.212Z" fill="white"/>
<path d="M48.6207 47.7126C48.1935 47.2844 47.5035 47.2844 47.0763 47.7126C46.6491 48.1408 46.6491 48.8326 47.0763 49.2608L50.3623 52.5549C50.5814 52.7745 50.8552 52.8733 51.14 52.8733C51.4248 52.8733 51.6986 52.7635 51.9177 52.5549C52.3448 52.1267 52.3448 51.4349 51.9177 51.0067L48.6317 47.7126H48.6207Z" fill="white"/>
<path d="M59.7164 29.9246H55.0612C54.4588 29.9246 53.9659 30.4187 53.9659 31.0226C53.9659 31.6265 54.4588 32.1206 55.0612 32.1206H59.7164C60.3188 32.1206 60.8117 31.6265 60.8117 31.0226C60.8117 30.4187 60.3188 29.9246 59.7164 29.9246Z" fill="white"/>
<path d="M47.843 14.651C48.1278 14.651 48.4017 14.5412 48.6207 14.3325L51.9067 11.0275C52.3339 10.5992 52.3339 9.90748 51.9067 9.47925C51.4795 9.05102 50.7895 9.05102 50.3623 9.47925L47.0763 12.7843C46.6491 13.2125 46.6491 13.9043 47.0763 14.3325C47.2954 14.5521 47.5692 14.651 47.854 14.651H47.843Z" fill="white"/>
<path d="M37.996 19.2188C37.4922 18.9003 36.8131 19.0541 36.4845 19.5591C36.1668 20.0752 36.3092 20.745 36.824 21.0744C39.7047 22.8972 41.6873 25.8618 42.2678 29.1998C42.3554 29.7379 42.8264 30.1112 43.3412 30.1112C43.4069 30.1112 43.4727 30.1112 43.5274 30.0892C44.1189 29.9904 44.5242 29.4194 44.4146 28.8155C43.7246 24.8626 41.3806 21.3599 37.9741 19.2078L37.996 19.2188Z" fill="white"/>
</g>
<defs>
<clipPath id="clip0_585_1288">
<rect width="60.7908" height="69.1757" fill="white" transform="translate(0.0209351 0.552307)"/>
</clipPath>
</defs>
</svg>
