<svg width="70" height="57" viewBox="0 0 70 57" fill="none" xmlns="http://www.w3.org/2000/svg">
<path d="M69.4508 38.4666C69.4508 38.3894 69.4287 38.3233 69.4066 38.2572C69.3955 38.2131 69.4066 38.18 69.3845 38.1359C69.3734 38.1028 69.3403 38.0808 69.3293 38.0477C69.3182 38.0146 69.3072 37.9926 69.2961 37.9595L60.2616 24.0701C60.2616 24.0701 60.1843 23.9929 60.1511 23.9488C60.107 23.8937 60.0628 23.8386 59.9965 23.7945C59.9302 23.7394 59.8529 23.7063 59.7756 23.6732C59.7204 23.6512 59.6762 23.6291 59.621 23.6071C59.5326 23.585 59.4443 23.585 59.3559 23.574C59.3117 23.574 59.2676 23.552 59.2234 23.563C59.0577 23.585 55.4571 23.9598 50.7079 25.2496L56.4622 3.83113C56.6168 3.24689 56.2745 2.6406 55.678 2.48628L49.2721 0.777651C48.8414 0.667417 48.4106 0.821744 48.1345 1.14142C48.0351 1.26268 47.9578 1.39496 47.9136 1.56031L41.6292 24.985C41.6292 24.985 41.6292 25.007 41.6292 25.0181C41.6071 25.0952 41.6182 25.1614 41.6182 25.2385C41.6182 25.3157 41.6071 25.3818 41.6182 25.459C41.6182 25.47 41.6182 25.4811 41.6182 25.4921L42.3692 29.1739L43.0982 32.7455C43.1865 33.1533 43.4847 33.484 43.8934 33.5943C43.9928 33.6163 44.0811 33.6273 44.1805 33.6273C44.4898 33.6273 44.799 33.4951 45.0089 33.2525L49.8465 27.807C53.9109 26.6054 57.39 26.0543 58.7816 25.8669L66.3582 37.5076C61.4655 37.6619 48.8414 38.5217 40.2044 43.5815C39.6743 43.8901 39.4976 44.5625 39.8068 45.0917C40.0167 45.4444 40.3812 45.6318 40.7567 45.6318C40.9444 45.6318 41.1432 45.5877 41.3089 45.4775C49.9569 40.4177 63.3762 39.7674 67.2529 39.6902V42.3358C63.2105 42.413 49.2611 42.9641 42.4023 46.8774C41.8722 47.1751 41.6844 47.8475 41.9937 48.3766C42.1925 48.7294 42.568 48.9278 42.9546 48.9278C43.1423 48.9278 43.3301 48.8837 43.5068 48.7845C49.8133 45.1909 63.321 44.6287 67.2529 44.5405V46.69C62.8239 46.6019 47.0632 46.8444 38.1281 54.4505H32.3627C24.267 46.8223 7.75519 46.6019 3.19374 46.7011V44.5515C7.13669 44.6397 20.6443 45.2019 26.9398 48.7955C27.1165 48.8947 27.3043 48.9388 27.492 48.9388C27.8786 48.9388 28.2431 48.7404 28.4529 48.3876C28.7511 47.8585 28.5744 47.1861 28.0443 46.8885C21.1966 42.9752 7.24714 42.424 3.19374 42.3468V39.7012C7.07042 39.7784 20.4897 40.4288 29.1377 45.4885C29.3144 45.5877 29.5022 45.6428 29.6899 45.6428C30.0102 45.6428 30.3305 45.4995 30.5514 45.235C30.8938 44.8161 30.8827 44.1988 30.5072 43.8019C30.0765 43.3279 20.4345 32.8006 13.6199 29.6699C14.2826 28.5125 14.9895 27.2117 15.7184 25.7677C17.2205 22.8354 18.5127 20.0135 19.1754 18.5143C22.5661 20.3883 33.2573 26.7928 34.1188 33.6494C34.1188 33.6825 34.1409 33.7045 34.152 33.7376C34.1188 33.925 34.1078 34.1234 34.1741 34.2998C34.1409 34.399 34.1078 34.4982 34.1078 34.6084V42.3248C34.1078 42.9311 34.6048 43.4271 35.2123 43.4271C35.8197 43.4271 36.3167 42.9311 36.3167 42.3248V34.6084C36.3167 34.6084 36.2946 34.5313 36.2946 34.4872C37.4433 33.5392 38.7576 32.6352 40.2155 31.8085C40.7456 31.4998 40.9224 30.8274 40.6241 30.2983C40.3259 29.7691 39.6522 29.5928 39.111 29.8904C37.9955 30.5298 36.9684 31.2132 36.0075 31.9187C33.5666 23.2764 19.7608 16.2876 19.1423 15.9789C18.8661 15.8466 18.5569 15.8246 18.2697 15.9348C17.9826 16.034 17.7506 16.2545 17.6291 16.5301C17.6181 16.5631 16.0939 20.0906 14.1169 24.0149C12.3608 23.7063 11.2784 23.5961 11.2232 23.585C11.179 23.585 11.1349 23.5961 11.0796 23.5961C10.9913 23.5961 10.9029 23.5961 10.8146 23.6181C10.7593 23.6291 10.7041 23.6622 10.6489 23.6842C10.5716 23.7173 10.5053 23.7504 10.439 23.7945C10.3728 23.8386 10.3286 23.8937 10.2844 23.9598C10.2513 24.0039 10.2071 24.026 10.174 24.0701L1.17256 37.9595C1.17256 37.9595 1.15048 38.0146 1.13943 38.0477C1.11734 38.0808 1.09525 38.1028 1.08421 38.1359C1.07316 38.169 1.07316 38.2131 1.06212 38.2572C1.04003 38.3233 1.02898 38.4005 1.01794 38.4666C1.01794 38.4997 0.99585 38.5217 0.99585 38.5548V47.8144C0.99585 48.1121 1.11734 48.4097 1.33823 48.6191C1.55913 48.8286 1.84629 48.9388 2.15554 48.9168C2.35434 48.9058 22.7428 47.9357 31.1368 56.3135C31.3466 56.5229 31.6227 56.6331 31.9209 56.6331H38.5477C38.8239 56.6331 39.0779 56.5339 39.2767 56.3576C48.753 47.9467 68.1033 48.9168 68.3021 48.9168C68.6003 48.9278 68.8985 48.8286 69.1194 48.6191C69.3403 48.4097 69.4618 48.1231 69.4618 47.8144V38.5548C69.4618 38.5548 69.4508 38.4997 69.4397 38.4666H69.4508ZM24.7529 41.024C16.9333 38.191 8.03131 37.6068 4.11045 37.4855L11.6871 25.8448C12.0405 25.8889 12.5044 25.9551 13.0898 26.0543C12.3829 27.3881 11.7202 28.5786 11.1017 29.6148C10.925 29.9014 10.8919 30.2542 11.0134 30.5628C11.1238 30.8825 11.3778 31.125 11.6981 31.2242C15.5196 32.4919 21.0198 37.3753 24.764 41.013L24.7529 41.024ZM49.7581 3.19177L54.0213 4.3382L48.3002 25.6354L44.037 24.5L49.7581 3.2028V3.19177ZM44.8101 30.1329L44.5229 28.7219L44.1253 26.7928L47.0742 27.5865L44.8101 30.1329Z" fill="white"/>
</svg>
